<?xml version="1.0" encoding="UTF-8" standalone="no"?>
<!-- Created with Inkscape (http://www.inkscape.org/) -->

<svg
   xmlns:dc="http://purl.org/dc/elements/1.1/"
   xmlns:cc="http://creativecommons.org/ns#"
   xmlns:rdf="http://www.w3.org/1999/02/22-rdf-syntax-ns#"
   xmlns:svg="http://www.w3.org/2000/svg"
   xmlns="http://www.w3.org/2000/svg"
   xmlns:sodipodi="http://sodipodi.sourceforge.net/DTD/sodipodi-0.dtd"
   xmlns:inkscape="http://www.inkscape.org/namespaces/inkscape"
   width="210mm"
   height="297mm"
   viewBox="0 0 744.09448819 1052.3622047"
   id="svg6067"
   version="1.1"
   inkscape:version="0.91 r13725"
   sodipodi:docname="Carrot.svg">
  <defs
     id="defs6069" />
  <sodipodi:namedview
     id="base"
     pagecolor="#ffffff"
     bordercolor="#666666"
     borderopacity="1.0"
     inkscape:pageopacity="0.0"
     inkscape:pageshadow="2"
     inkscape:zoom="0.7"
     inkscape:cx="37.766681"
     inkscape:cy="602.76995"
     inkscape:document-units="px"
     inkscape:current-layer="layer1"
     showgrid="false"
     inkscape:window-width="1920"
     inkscape:window-height="1017"
     inkscape:window-x="-8"
     inkscape:window-y="-8"
     inkscape:window-maximized="1" />
  <metadata
     id="metadata6072">
    <rdf:RDF>
      <cc:Work
         rdf:about="">
        <dc:format>image/svg+xml</dc:format>
        <dc:type
           rdf:resource="http://purl.org/dc/dcmitype/StillImage" />
        <dc:title></dc:title>
      </cc:Work>
    </rdf:RDF>
  </metadata>
  <g
     inkscape:label="Layer 1"
     inkscape:groupmode="layer"
     id="layer1">
    <path
       style="fill:#ff7f2a;fill-rule:evenodd;stroke:#000000;stroke-width:10;stroke-linecap:round;stroke-linejoin:round;stroke-opacity:1;stroke-miterlimit:4;stroke-dasharray:none"
       d="m 245.71428,149.50506 c -22.87057,36.98872 -27.78487,80.20263 -10.10061,121.78068 -5.51668,39.20207 9.7346,69.34523 13.77621,100.40508 -0.62937,36.74875 6.54159,75.73074 25.25062,115.22656 -1.46305,38.6757 11.11696,75.34174 30.45701,110.26018 -0.70224,60.78308 23.70151,105.90146 48.67289,146.73645 1.58336,45.004 19.16133,80.38913 42.94941,107.98908 26.92147,85.23804 60.37018,130.17746 78.99447,116.1734 19.13076,-37.39209 17.97547,-95.98611 9.11982,-165.32779 6.08256,-36.35911 3.64581,-73.36107 -5.02545,-109.93849 5.78053,-35.40196 0.99218,-68.79745 -7.09556,-101.15333 5.84028,-47.9543 2.50126,-92.11279 -10.96554,-129.57955 6.72477,-29.30433 5.94864,-94.97582 -12.21998,-134.33993 5.85602,-31.85626 9.24471,-58.19954 -5.9249,-74.0681 -3.59538,-58.97891 27.36765,-73.99658 -25.03124,-124.16424 -41.1731,-39.419893 -119.65974,-66.0365 -172.85715,20 z"
       id="path6615"
       inkscape:connector-curvature="0"
       sodipodi:nodetypes="scccccccccccccss" />
    <path
       style="fill:#ffffff;fill-rule:evenodd;stroke:#000000;stroke-width:10;stroke-linecap:butt;stroke-linejoin:miter;stroke-opacity:1;stroke-miterlimit:4;stroke-dasharray:none"
       d="m 233.73603,251.2654 c 0,0 12.04086,-40.92614 29.23495,-42.91407 20.35818,-2.35375 45.29587,41.57215 45.29587,41.57215 -28.41005,-9.65763 -54.1795,-11.83354 -74.53082,1.34192 z"
       id="path6619"
       inkscape:connector-curvature="0"
       sodipodi:nodetypes="cscc" />
    <path
       style="fill:#ffffff;fill-rule:evenodd;stroke:#000000;stroke-width:10;stroke-linecap:butt;stroke-linejoin:miter;stroke-opacity:1;stroke-miterlimit:4;stroke-dasharray:none"
       d="m 347.08338,247.49962 c 0,0 15.44482,-15.95879 31.84698,-13.05763 16.26241,2.87643 38.90321,15.81326 38.90321,15.81326 -26.10351,-13.5484 -50.02763,-16.1745 -70.75019,-2.75563 z"
       id="path6621"
       inkscape:connector-curvature="0"
       sodipodi:nodetypes="cscc" />
    <path
       style="fill:none;fill-rule:evenodd;stroke:#000000;stroke-width:10;stroke-linecap:round;stroke-linejoin:round;stroke-miterlimit:4;stroke-dasharray:none;stroke-opacity:1"
       d="m 274.46563,368.21409 c 108.44063,33.30087 134.22904,-5.34613 154.56384,-37.21284"
       id="path6658"
       inkscape:connector-curvature="0"
       sodipodi:nodetypes="cc" />
    <path
       style="fill:#89a02c;fill-rule:evenodd;stroke:#000000;stroke-width:10;stroke-linecap:butt;stroke-linejoin:miter;stroke-opacity:1;stroke-miterlimit:4;stroke-dasharray:none"
       d="m 317.14285,105.21935 c 25.63974,-180.263636 26.25428,-118.08309 125.71429,-284.28572 27.73619,-14.15054 50.36084,-2.53384 58.57144,37.14285 -121.74669,105.486933 -120.01375,62.878406 -140.00001,262.85715 -20.53493,7.75122 -38.81061,10.41911 -44.28572,-15.71428 z"
       id="path6660"
       inkscape:connector-curvature="0"
       sodipodi:nodetypes="ccccc" />
    <path
       style="fill:none;fill-rule:evenodd;stroke:#000000;stroke-width:1px;stroke-linecap:butt;stroke-linejoin:miter;stroke-opacity:1"
       d="m 300.15845,490.53008 c 57.96259,12.03378 118.99225,-6.13285 157.67767,-28.18275"
       id="path6662"
       inkscape:connector-curvature="0"
       sodipodi:nodetypes="cc" />
    <path
       style="fill:none;fill-rule:evenodd;stroke:#000000;stroke-width:1px;stroke-linecap:butt;stroke-linejoin:miter;stroke-opacity:1"
       d="m 339.82668,601.80021 c 42.41338,14.62486 88.55831,4.77292 129.62619,-10.20305"
       id="path6664"
       inkscape:connector-curvature="0"
       sodipodi:nodetypes="cc" />
    <path
       style="fill:none;fill-rule:evenodd;stroke:#000000;stroke-width:1px;stroke-linecap:butt;stroke-linejoin:miter;stroke-opacity:1"
       d="m 359.71029,743.47388 c 29.508,-4.31734 85.37697,-21.06758 106.8557,-41.44344"
       id="path6666"
       inkscape:connector-curvature="0"
       sodipodi:nodetypes="cc" />
    <path
       style="fill:none;fill-rule:evenodd;stroke:#000000;stroke-width:1px;stroke-linecap:butt;stroke-linejoin:miter;stroke-opacity:1"
       d="m 408.57143,838.07649 c 28.6879,-2.8306 54.61236,-16.31284 72.52538,-32.61204"
       id="path6668"
       inkscape:connector-curvature="0"
       sodipodi:nodetypes="cc" />
    <path
       style="fill:none;fill-rule:evenodd;stroke:#000000;stroke-width:1px;stroke-linecap:butt;stroke-linejoin:miter;stroke-opacity:1"
       d="m 335.37064,116.96095 c 0,0 2.50645,-97.358145 28.28427,-146.472121 25.77783,-49.113976 123.23862,-136.370589 123.23862,-136.370589"
       id="path6674"
       inkscape:connector-curvature="0"
       sodipodi:nodetypes="czc" />
    <path
       style="fill:#803300;fill-rule:evenodd;stroke:#000000;stroke-width:10;stroke-linecap:round;stroke-linejoin:round;stroke-miterlimit:4;stroke-dasharray:none;stroke-opacity:1"
       d="m 292.28072,373.59046 c 0,0 20.31625,37.3754 54.2016,44.39595 20.78554,4.30646 83.62998,-84.46575 82.73099,-87.31257 -33.07351,45.66715 -92.66803,49.47435 -136.93259,42.91662 z"
       id="path6676"
       inkscape:connector-curvature="0"
       sodipodi:nodetypes="cscc" />
  </g>
</svg>
