<?xml version="1.0" encoding="UTF-8" standalone="no"?>
<!-- Created with Inkscape (http://www.inkscape.org/) -->

<svg
   xmlns:dc="http://purl.org/dc/elements/1.1/"
   xmlns:cc="http://creativecommons.org/ns#"
   xmlns:rdf="http://www.w3.org/1999/02/22-rdf-syntax-ns#"
   xmlns:svg="http://www.w3.org/2000/svg"
   xmlns="http://www.w3.org/2000/svg"
   xmlns:sodipodi="http://sodipodi.sourceforge.net/DTD/sodipodi-0.dtd"
   xmlns:inkscape="http://www.inkscape.org/namespaces/inkscape"
   width="300"
   height="300"
   viewBox="0 0 300 300"
   id="svg6067"
   version="1.1"
   inkscape:version="0.91 r13725"
   sodipodi:docname="Carrot.svg"
   inkscape:export-filename="C:\Users\Shep\Documents\GitHub\VelocidataGamejam2015.github.io\Assets\Monsters\S_LustyCarrot.png"
   inkscape:export-xdpi="90"
   inkscape:export-ydpi="90">
  <defs
     id="defs6069" />
  <sodipodi:namedview
     id="base"
     pagecolor="#ffffff"
     bordercolor="#666666"
     borderopacity="1.0"
     inkscape:pageopacity="0.0"
     inkscape:pageshadow="2"
     inkscape:zoom="1.979899"
     inkscape:cx="84.909035"
     inkscape:cy="219.0645"
     inkscape:document-units="px"
     inkscape:current-layer="layer1"
     showgrid="false"
     inkscape:window-width="1920"
     inkscape:window-height="1017"
     inkscape:window-x="-8"
     inkscape:window-y="-8"
     inkscape:window-maximized="1"
     units="px" />
  <metadata
     id="metadata6072">
    <rdf:RDF>
      <cc:Work
         rdf:about="">
        <dc:format>image/svg+xml</dc:format>
        <dc:type
           rdf:resource="http://purl.org/dc/dcmitype/StillImage" />
        <dc:title></dc:title>
      </cc:Work>
    </rdf:RDF>
  </metadata>
  <g
     inkscape:label="Layer 1"
     inkscape:groupmode="layer"
     id="layer1"
     transform="translate(0,-752.36216)"
     style="display:inline">
    <g
       id="g17041"
       transform="translate(1.3837302,1.0101525)">
      <path
         sodipodi:nodetypes="scccccccccccccss"
         inkscape:connector-curvature="0"
         id="path6615"
         d="m 130.22258,836.51265 c -3.37185,3.84689 -4.09638,8.34123 -1.48915,12.66543 -0.81334,4.0771 1.43519,7.21205 2.03105,10.44233 -0.0928,3.82195 0.96444,7.87615 3.72275,11.9838 -0.2157,4.02234 1.639,7.83569 4.49034,11.46728 -0.10353,6.32156 3.49436,11.01397 7.17594,15.26089 0.23344,4.68051 2.825,8.36063 6.33212,11.23108 3.96908,8.86493 8.90049,13.53872 11.64631,12.08227 2.82049,-3.88885 2.65016,-9.98275 1.34455,-17.19442 0.89677,-3.78143 0.53751,-7.6297 -0.74091,-11.43383 0.85224,-3.68187 0.14628,-7.15508 -1.04611,-10.52015 0.86104,-4.98735 0.36876,-9.57992 -1.61667,-13.47653 0.99145,-3.04772 0.87702,-9.87769 -1.80162,-13.97163 0.86337,-3.31312 1.36297,-6.05287 -0.87352,-7.70324 -0.53007,-6.13392 4.03487,-7.69579 -3.6904,-12.91333 -6.07024,-4.09975 -17.64168,-6.86793 -25.48468,2.08005 z"
         style="fill:#ff7f2a;fill-rule:evenodd;stroke:#000000;stroke-width:1.2382741;stroke-linecap:round;stroke-linejoin:round;stroke-miterlimit:4;stroke-dasharray:none;stroke-opacity:1" />
      <path
         sodipodi:nodetypes="cscc"
         inkscape:connector-curvature="0"
         id="path6619"
         d="m 128.4566,847.09592 c 0,0 1.77521,-4.2564 4.31017,-4.46314 3.00145,-0.2448 6.67806,4.32359 6.67806,4.32359 -4.18855,-1.00443 -7.98779,-1.23072 -10.98823,0.13955 z"
         style="fill:#ffffff;fill-rule:evenodd;stroke:#000000;stroke-width:1.2382741;stroke-linecap:butt;stroke-linejoin:miter;stroke-miterlimit:4;stroke-dasharray:none;stroke-opacity:1" />
      <path
         sodipodi:nodetypes="cscc"
         inkscape:connector-curvature="0"
         id="path6621"
         d="m 145.16763,846.70428 c 0,0 2.27706,-1.65975 4.69526,-1.35803 2.3976,0.29916 5.73559,1.64462 5.73559,1.64462 -3.8485,-1.40907 -7.37568,-1.68219 -10.43085,-0.28659 z"
         style="fill:#ffffff;fill-rule:evenodd;stroke:#000000;stroke-width:1.2382741;stroke-linecap:butt;stroke-linejoin:miter;stroke-miterlimit:4;stroke-dasharray:none;stroke-opacity:1" />
      <path
         sodipodi:nodetypes="cc"
         inkscape:connector-curvature="0"
         id="path6658"
         d="m 134.46145,859.25883 c 15.98762,3.46335 19.78966,-0.55601 22.78766,-3.87022"
         style="fill:none;fill-rule:evenodd;stroke:#000000;stroke-width:1.2382741;stroke-linecap:round;stroke-linejoin:round;stroke-miterlimit:4;stroke-dasharray:none;stroke-opacity:1" />
      <path
         sodipodi:nodetypes="ccccc"
         inkscape:connector-curvature="0"
         id="path6660"
         d="m 140.75344,831.90684 c 3.78012,-18.74778 3.87072,-12.28088 18.53431,-29.56629 4.0892,-1.47169 7.4248,-0.26353 8.6353,3.86293 -17.94935,10.97086 -17.69386,6.53948 -20.64048,27.33768 -3.0275,0.80614 -5.72192,1.0836 -6.52913,-1.63432 z"
         style="fill:#89a02c;fill-rule:evenodd;stroke:#000000;stroke-width:1.2382741;stroke-linecap:butt;stroke-linejoin:miter;stroke-miterlimit:4;stroke-dasharray:none;stroke-opacity:1" />
      <path
         sodipodi:nodetypes="cc"
         inkscape:connector-curvature="0"
         id="path6662"
         d="m 138.2494,871.97994 c 8.54553,1.25153 17.54326,-0.63783 23.24673,-2.93106"
         style="fill:none;fill-rule:evenodd;stroke:#000000;stroke-width:0.12382741px;stroke-linecap:butt;stroke-linejoin:miter;stroke-opacity:1" />
      <path
         sodipodi:nodetypes="cc"
         inkscape:connector-curvature="0"
         id="path6664"
         d="m 144.09776,883.55226 c 6.25309,1.52101 13.05633,0.49639 19.11105,-1.06114"
         style="fill:none;fill-rule:evenodd;stroke:#000000;stroke-width:0.12382741px;stroke-linecap:butt;stroke-linejoin:miter;stroke-opacity:1" />
      <path
         sodipodi:nodetypes="cc"
         inkscape:connector-curvature="0"
         id="path6666"
         d="m 147.02924,898.2866 c 4.35043,-0.44901 12.5873,-2.19107 15.75395,-4.3102"
         style="fill:none;fill-rule:evenodd;stroke:#000000;stroke-width:0.12382741px;stroke-linecap:butt;stroke-linejoin:miter;stroke-opacity:1" />
      <path
         sodipodi:nodetypes="cc"
         inkscape:connector-curvature="0"
         id="path6668"
         d="m 154.23294,908.12547 c 4.22951,-0.29439 8.0516,-1.69657 10.69256,-3.39172"
         style="fill:none;fill-rule:evenodd;stroke:#000000;stroke-width:0.12382741px;stroke-linecap:butt;stroke-linejoin:miter;stroke-opacity:1" />
      <path
         sodipodi:nodetypes="czc"
         inkscape:connector-curvature="0"
         id="path6674"
         d="m 143.4408,833.12799 c 0,0 0.36953,-10.12545 4.17,-15.2334 3.80048,-5.10795 18.16932,-14.18281 18.16932,-14.18281"
         style="fill:none;fill-rule:evenodd;stroke:#000000;stroke-width:0.12382741px;stroke-linecap:butt;stroke-linejoin:miter;stroke-opacity:1" />
      <path
         sodipodi:nodetypes="cscc"
         inkscape:connector-curvature="0"
         id="path6676"
         d="m 137.08797,859.81798 c 0,0 2.99526,3.88711 7.99105,4.61727 3.06445,0.44787 12.32973,-8.78461 12.19719,-9.08069 -4.8761,4.74948 -13.66223,5.14544 -20.18824,4.46342 z"
         style="fill:#803300;fill-rule:evenodd;stroke:#000000;stroke-width:1.2382741;stroke-linecap:round;stroke-linejoin:round;stroke-miterlimit:4;stroke-dasharray:none;stroke-opacity:1" />
    </g>
  </g>
  <g
     inkscape:groupmode="layer"
     id="layer11"
     inkscape:label="BoundingBox"
     style="display:none"
     sodipodi:insensitive="true">
    <rect
       transform="translate(0,-752.36216)"
       style="fill:#000000;fill-opacity:0;stroke:#000000;stroke-width:0.78417003;stroke-linecap:round;stroke-linejoin:round;stroke-miterlimit:4;stroke-dasharray:none;stroke-opacity:1"
       id="rect17037"
       width="99.215828"
       height="99.215828"
       x="100.39208"
       y="852.75427" />
  </g>
</svg>
