<?xml version="1.0" encoding="UTF-8" standalone="no"?>
<!-- Created with Inkscape (http://www.inkscape.org/) -->

<svg
   xmlns:dc="http://purl.org/dc/elements/1.1/"
   xmlns:cc="http://creativecommons.org/ns#"
   xmlns:rdf="http://www.w3.org/1999/02/22-rdf-syntax-ns#"
   xmlns:svg="http://www.w3.org/2000/svg"
   xmlns="http://www.w3.org/2000/svg"
   xmlns:sodipodi="http://sodipodi.sourceforge.net/DTD/sodipodi-0.dtd"
   xmlns:inkscape="http://www.inkscape.org/namespaces/inkscape"
   width="210mm"
   height="297mm"
   viewBox="0 0 744.09448819 1052.3622047"
   id="svg4166"
   version="1.1"
   inkscape:version="0.91 r13725"
   sodipodi:docname="Celery.svg">
  <defs
     id="defs4168" />
  <sodipodi:namedview
     id="base"
     pagecolor="#ffffff"
     bordercolor="#666666"
     borderopacity="1.0"
     inkscape:pageopacity="0.0"
     inkscape:pageshadow="2"
     inkscape:zoom="0.49497475"
     inkscape:cx="117.59558"
     inkscape:cy="591.98467"
     inkscape:document-units="px"
     inkscape:current-layer="layer1"
     showgrid="false"
     inkscape:window-width="1920"
     inkscape:window-height="1017"
     inkscape:window-x="-8"
     inkscape:window-y="-8"
     inkscape:window-maximized="1" />
  <metadata
     id="metadata4171">
    <rdf:RDF>
      <cc:Work
         rdf:about="">
        <dc:format>image/svg+xml</dc:format>
        <dc:type
           rdf:resource="http://purl.org/dc/dcmitype/StillImage" />
        <dc:title></dc:title>
      </cc:Work>
    </rdf:RDF>
  </metadata>
  <g
     inkscape:label="Layer 1"
     inkscape:groupmode="layer"
     id="layer1">
    <path
       style="fill:#8dd35f;fill-rule:evenodd;stroke:#000000;stroke-width:1px;stroke-linecap:butt;stroke-linejoin:miter;stroke-opacity:1;fill-opacity:1"
       d="m 233.34524,266.46352 335.37064,36.3655 -73.74113,482.85291 -174.75639,-8.08122 z"
       id="path4868"
       inkscape:connector-curvature="0" />
    <path
       style="fill:#00aa00;fill-opacity:1;stroke:#000000;stroke-width:10;stroke-linejoin:bevel;stroke-miterlimit:4;stroke-dasharray:none;stroke-opacity:1"
       d="m 556.59405,73.524389 c 0,98.746861 4.91296,75.761441 -151.01782,75.761441 -155.93078,0 -139.90613,-13.38008 -139.90613,-112.126933 0,-98.746854 -56.43075,-208.091417 99.50003,-208.091427 155.93078,0 191.42392,145.710063 191.42392,244.456919 z"
       id="path4835"
       inkscape:connector-curvature="0"
       sodipodi:nodetypes="sssss" />
    <path
       style="fill:#00aa00;fill-opacity:1;stroke:#000000;stroke-width:10;stroke-linejoin:bevel;stroke-miterlimit:4;stroke-dasharray:none;stroke-opacity:1"
       d="m 306.07622,173.52949 c 0,118.83096 -2.0203,112.63201 -52.52793,153.54318 -69.36281,56.18388 -143.44166,-46.83405 -143.44166,-165.66501 0,-118.830965 -88.252538,-201.020357 1.01015,-201.020353 89.2627,0 194.95944,94.311221 194.95944,213.142183 z"
       id="path4829"
       inkscape:connector-curvature="0"
       sodipodi:nodetypes="sssss" />
    <path
       style="fill:#c6e9af;fill-rule:evenodd;stroke:#000000;stroke-width:1px;stroke-linecap:butt;stroke-linejoin:miter;stroke-opacity:1"
       d="m 288.57143,918.79077 c 28.75218,16.34984 45.69254,9.93573 62.5,6.07143 l 5.71428,53.57143 -46.07142,1.07143 z"
       id="path4722"
       inkscape:connector-curvature="0"
       sodipodi:nodetypes="ccccc" />
    <path
       style="fill:#c6e9af;fill-rule:evenodd;stroke:#000000;stroke-width:1px;stroke-linecap:butt;stroke-linejoin:miter;stroke-opacity:1"
       d="m 329.28571,913.07649 c 30.91299,6.54098 57.77637,1.54936 83.92858,-12.85714 l 0,75.71428 -92.14286,2.14286 z"
       id="path4724"
       inkscape:connector-curvature="0"
       sodipodi:nodetypes="ccccc" />
    <path
       style="fill:#c6e9af;fill-rule:evenodd;stroke:#000000;stroke-width:1px;stroke-linecap:butt;stroke-linejoin:miter;stroke-opacity:1"
       d="m 461.78571,914.14792 c 14.12026,5.22115 27.04257,18.72065 45.7143,13.92857 l -18.57145,48.92856 -29.2857,-1.7857 z"
       id="path4728"
       inkscape:connector-curvature="0"
       sodipodi:nodetypes="ccccc" />
    <path
       style="fill:#c6e9af;fill-rule:evenodd;stroke:#000000;stroke-width:1px;stroke-linecap:butt;stroke-linejoin:miter;stroke-opacity:1"
       d="m 394.64286,917.71935 c 25.56352,1.77207 45.80665,11.23622 77.5,2.5 l 3.92857,53.92857 -93.21429,4.28572 z"
       id="path4726"
       inkscape:connector-curvature="0"
       sodipodi:nodetypes="ccccc" />
    <path
       style="fill:#c87137;fill-rule:evenodd;stroke:#000000;stroke-width:1px;stroke-linecap:butt;stroke-linejoin:miter;stroke-opacity:1"
       d="m 309.64286,976.64792 c 59.94677,-1.07143 120.17595,-2.14286 181.07143,-3.21429 l -2.85715,6.07143 c -57.05548,0.78165 -116.28135,0.63465 -177.14285,1.42857 z"
       id="path4730"
       inkscape:connector-curvature="0"
       sodipodi:nodetypes="ccccc" />
    <g
       id="g4819"
       transform="matrix(0.84571256,0,0,0.90320817,116.1456,17.218038)"
       style="stroke-width:3.4325426;stroke-miterlimit:4;stroke-dasharray:none">
      <path
         sodipodi:nodetypes="sssss"
         inkscape:connector-curvature="0"
         id="path4732"
         d="m 533.30177,158.13394 c 0,90.75521 -73.72725,128.73258 -167.87258,128.73258 -94.14533,0 -160.0947,-39.16384 -160.0947,-129.91906 0,-90.755206 29.6526,-201.107583 123.79793,-201.107583 94.14533,0 204.16935,111.538851 204.16935,202.294063 z"
         style="fill:#c87137;fill-opacity:1;stroke:#241c1c;stroke-width:3.4325426;stroke-linejoin:bevel;stroke-miterlimit:4;stroke-dasharray:none;stroke-opacity:1" />
      <path
         sodipodi:nodetypes="ccccccc"
         inkscape:connector-curvature="0"
         id="path4735"
         d="M 250.40442,-3.3408455 182.00086,-95.178557 c 33.21001,-20.971103 26.66619,-66.240753 121.85345,-62.883193 46.20405,-27.18205 106.79201,-70.0215 152.96497,22.54303 L 422.1985,-14.450954 c -40.70341,-11.674173 -72.22407,-26.492638 -92.35278,-10.246449 -18.92902,-4.791163 -28.21304,5.61712 -79.4413,21.3565575 z"
         style="fill:#784421;fill-rule:evenodd;stroke:#000000;stroke-width:3.4325426;stroke-linecap:butt;stroke-linejoin:miter;stroke-miterlimit:4;stroke-dasharray:none;stroke-opacity:1" />
      <path
         sodipodi:nodetypes="cc"
         inkscape:connector-curvature="0"
         id="path4737"
         d="m 302.558,-159.24823 25.45446,132.525388"
         style="fill:none;fill-rule:evenodd;stroke:#000000;stroke-width:3.4325426;stroke-linecap:butt;stroke-linejoin:miter;stroke-opacity:1;stroke-miterlimit:4;stroke-dasharray:none" />
      <path
         sodipodi:nodetypes="ccccc"
         inkscape:connector-curvature="0"
         id="path4739"
         d="m 235.33396,-16.128884 c 72.70981,-34.254317 100.37078,-40.6725 200.42976,-30.823663 14.7351,13.531304 -3.4576,31.627701 -3.4576,31.627701 -78.53781,-10.306997 -123.93125,-29.437537 -187.89797,22.9254692 0,0 -17.99793,-6.85102835 -9.07419,-23.7295072 z"
         style="fill:#deaa87;fill-rule:evenodd;stroke:#000000;stroke-width:3.4325426;stroke-linecap:butt;stroke-linejoin:miter;stroke-miterlimit:4;stroke-dasharray:none;stroke-opacity:1" />
      <path
         id="text4780"
         d="m 369.00781,12.402344 -15.0664,3.044922 3.3125,16.380859 c -4.51577,0.618148 -8.97234,1.364088 -13.36329,2.251953 -4.96846,1.004643 -9.67961,2.173949 -14.15039,3.494141 l -3.34765,-16.556641 -15.06641,3.046875 3.79492,18.771485 c -11.4475,4.96701 -20.75198,11.293234 -27.89062,18.992187 -12.28971,13.345108 -16.60366,29.077888 -12.93945,47.199215 3.16454,15.65024 10.86796,26.81001 23.10742,33.48047 9.56078,5.2106 22.80124,8.18834 39.6875,8.95313 l 15.5332,76.81836 c -4.69082,0.16612 -9.45582,0.11107 -14.29687,-0.16407 -12.87167,-0.73153 -26.31711,-2.96653 -40.33594,-6.70507 l 5.77344,28.55468 c 14.12966,1.62033 27.58182,2.28248 40.35351,1.98633 4.50268,-0.11089 8.88135,-0.34579 13.15234,-0.68945 l 4.05469,20.05273 15.06836,-3.04687 -3.80469,-18.81641 c 2.4793,-0.39305 4.92292,-0.8215 7.3125,-1.30469 7.18695,-1.45322 13.87631,-3.13465 20.07813,-5.03906 l 3.96094,19.58985 15.0664,-3.04688 -4.41601,-21.84375 c 11.86053,-5.04392 21.33823,-11.17857 28.39648,-18.42187 13.05187,-13.3087 17.57051,-29.89366 13.55469,-49.75391 -3.36811,-16.65698 -11.64535,-28.79587 -24.83203,-36.41797 -10.12655,-5.97824 -23.58616,-9.39495 -40.34766,-10.27539 L 377.28516,53.335938 c 2.01207,-0.01801 4.03751,-0.0094 6.09179,0.05273 11.06613,0.33451 23.06509,1.81464 35.9961,4.439453 L 413.9043,30.783203 c -12.51281,-1.089888 -24.59115,-1.362652 -36.23438,-0.818359 -1.69271,0.07913 -3.37426,0.182762 -5.05078,0.296875 l -3.61133,-17.859375 z m -7.20703,41.914062 13.84961,68.494144 -19.56055,0.40039 c -3.19407,0.11503 -6.15519,0.14178 -9.00586,0.1289 L 334.42969,60.759766 c 5.21364,-1.939718 11.07185,-3.569546 17.58593,-4.886719 3.19476,-0.645992 6.46133,-1.155607 9.78516,-1.556641 z m -41.61328,13.572266 11.02539,54.529298 c -5.18867,-0.69408 -9.35307,-1.76832 -12.49023,-3.22656 -7.05579,-3.43175 -11.49993,-9.67762 -13.33204,-18.73829 -2.18371,-10.799576 0.74198,-20.061527 8.77735,-27.783198 1.78619,-1.699207 3.80209,-3.28849 6.01953,-4.78125 z m 54.76562,83.085938 c 2.22192,-0.0135 4.35295,0.0233 6.41211,0.0996 l 13.91797,68.82812 c -5.83018,2.30468 -12.46831,4.21783 -19.93945,5.72852 -2.41658,0.48864 -4.86121,0.89589 -7.32227,1.25391 l -15.23046,-75.3125 19.11132,-0.55079 c 1.03294,-0.0243 2.05081,-0.0408 3.05078,-0.0469 z m 22.4668,1.93945 c 4.44171,0.95711 8.2498,2.26293 11.40625,3.92969 8.19169,4.24997 13.30418,11.40916 15.33985,21.47656 2.33176,11.53176 -0.7414,21.39345 -9.22071,29.58594 -1.64996,1.59415 -3.4847,3.09837 -5.49219,4.51953 l -12.0332,-59.51172 z"
         style="font-style:normal;font-weight:normal;font-size:305.17581177px;line-height:125%;font-family:sans-serif;letter-spacing:0px;word-spacing:0px;fill:#ffeeaa;fill-opacity:1;stroke:#000000;stroke-width:3.4325426;stroke-linecap:butt;stroke-linejoin:miter;stroke-opacity:1;stroke-miterlimit:4;stroke-dasharray:none"
         inkscape:connector-curvature="0" />
      <path
         sodipodi:nodetypes="ccccc"
         inkscape:connector-curvature="0"
         id="path4760"
         d="m 324.06109,-14.374082 c 18.61473,13.6639532 26.81062,32.529384 32.08211,52.854784 -12.56586,20.77858 -21.22182,14.121171 -30.24885,10.067577 3.75575,-27.181881 -3.17449,-44.5621203 -20.62422,-67.117185 z"
         style="fill:#deaa87;fill-rule:evenodd;stroke:#000000;stroke-width:3.4325426;stroke-linecap:butt;stroke-linejoin:miter;stroke-miterlimit:4;stroke-dasharray:none;stroke-opacity:1" />
      <path
         style="fill:#deaa87;fill-rule:evenodd;stroke:#000000;stroke-width:3.4325426;stroke-linecap:butt;stroke-linejoin:miter;stroke-miterlimit:4;stroke-dasharray:none;stroke-opacity:1"
         d="M 234.12386,-1.2173335 C 306.83367,-35.471649 338.16117,-36.856044 438.22015,-27.007207 452.95524,-13.475904 442.0956,-3.3496716 442.0956,-3.3496716 363.645,-12.539113 306.32907,-27.135743 241.36478,12.444596 c 0,0 -16.16466,3.21655 -7.24092,-13.6619295 z"
         id="path4756"
         inkscape:connector-curvature="0"
         sodipodi:nodetypes="ccccc" />
      <path
         sodipodi:nodetypes="ccccc"
         inkscape:connector-curvature="0"
         id="path4758"
         d="m 324.5194,-47.093709 c -3.69275,-8.998775 -9.7513,-5.682714 -18.33264,2.097413 -12.05635,29.929651 -31.09816,39.147724 -29.79054,100.675774 7.35879,3.960778 14.06569,10.308199 26.12402,-2.936373 -12.48202,-39.324311 11.19108,-67.61807 21.99916,-99.836814 z"
         style="fill:#deaa87;fill-rule:evenodd;stroke:#000000;stroke-width:3.4325426;stroke-linecap:butt;stroke-linejoin:miter;stroke-miterlimit:4;stroke-dasharray:none;stroke-opacity:1" />
    </g>
    <path
       style="fill:#00aa00;fill-opacity:1;stroke:#000000;stroke-width:10;stroke-linejoin:bevel;stroke-miterlimit:4;stroke-dasharray:none;stroke-opacity:1"
       d="m 686.90375,209.38991 c 0,126.92039 -45.26913,163.13963 -127.27923,163.13963 -82.0101,0 -39.39596,-40.25985 -39.39596,-167.18024 0,-126.920404 100.82751,-232.840174 182.83762,-232.840174 82.01011,0 -16.16243,109.96038 -16.16243,236.880784 z"
       id="path4831"
       inkscape:connector-curvature="0"
       sodipodi:nodetypes="sssss" />
    <path
       style="fill:#8dd35f;fill-rule:evenodd;stroke:#000000;stroke-width:10;stroke-linecap:butt;stroke-linejoin:miter;stroke-miterlimit:4;stroke-dasharray:none;stroke-opacity:1"
       d="m 437.14286,974.50506 86.58086,-623.12328 c 96.47771,-257.584193 113.53859,-231.1005 70,12.14287 0,0 -38.72121,359.47072 -80.08438,542.23529 -5.53995,24.47844 -24.35363,71.24512 -24.35363,71.24512 z m -126.42858,4.28571 c 0,0 -21.10041,-52.26768 -27.65135,-79.57301 -45.84079,-191.07145 -80.20579,-583.99841 -80.20579,-583.99841 14.12773,-41.20569 -35.80009,-348.488283 72.14286,0 l 82.14286,662.85714 z"
       id="path4714"
       inkscape:connector-curvature="0"
       sodipodi:nodetypes="cccscccscccc" />
    <path
       style="fill:#00aa00;fill-opacity:1;stroke:#000000;stroke-width:10;stroke-linejoin:bevel;stroke-miterlimit:4;stroke-dasharray:none;stroke-opacity:1"
       d="m 405.07117,259.89753 c 0,83.96272 -1.29109,118.69292 -67.68022,118.69292 -66.38913,0 -85.86296,-71.09569 -85.86296,-155.05841 0,-83.96272 20.48398,-104.55079 86.87311,-104.55079 66.38913,0 66.67007,56.95356 66.67007,140.91628 z"
       id="path4833"
       inkscape:connector-curvature="0"
       sodipodi:nodetypes="sssss" />
    <path
       style="fill:#8dd35f;fill-rule:evenodd;stroke:#000000;stroke-width:10;stroke-linecap:butt;stroke-linejoin:miter;stroke-miterlimit:4;stroke-dasharray:none;stroke-opacity:1"
       d="m 306.06092,361.0736 c 19.34926,-139.32073 40.41794,-126.18265 76.59317,-3.81653 l 23.77448,618.67656 -85.71429,2.14286 c 0,0 9.44804,-57.91913 10.41134,-87.16469 6.44395,-195.63797 -25.0647,-529.8382 -25.0647,-529.8382 z"
       id="path4716"
       inkscape:connector-curvature="0"
       sodipodi:nodetypes="ccccsc" />
    <path
       style="fill:#00aa00;fill-opacity:1;stroke:#000000;stroke-width:10;stroke-linejoin:bevel;stroke-miterlimit:4;stroke-dasharray:none;stroke-opacity:1"
       d="m 527.29962,265.45337 c 0,83.96272 -29.57536,97.47972 -95.96449,97.47972 -66.38913,0 -35.35533,-54.93325 -14.14213,-130.81475 22.60564,-80.86238 23.51444,-104.55079 89.90357,-104.55079 66.38913,0 20.20305,53.9231 20.20305,137.88582 z"
       id="path4833-1"
       inkscape:connector-curvature="0"
       sodipodi:nodetypes="sssss" />
    <path
       style="fill:#8dd35f;fill-rule:evenodd;stroke:#000000;stroke-width:10;stroke-linecap:butt;stroke-linejoin:miter;stroke-miterlimit:4;stroke-dasharray:none;stroke-opacity:1"
       d="m 414.78463,358.30928 c 116.92601,-267.682619 77.51665,-114.50418 64.94054,-4.04062 0,0 -10.85039,349.82258 -8.76408,541.59276 0.28828,26.49848 4.75319,79.35793 4.75319,79.35793 l -91.42857,3.57143 c 0,0 12.49563,-62.55503 14.81697,-94.28392 13.70805,-187.366 15.68195,-526.19758 15.68195,-526.19758 z"
       id="path4718"
       inkscape:connector-curvature="0"
       sodipodi:nodetypes="ccsccsc" />
    <path
       style="fill:#ffffff;fill-rule:evenodd;stroke:#000000;stroke-width:10;stroke-linecap:butt;stroke-linejoin:miter;stroke-miterlimit:4;stroke-dasharray:none;stroke-opacity:1"
       d="m 267.9504,700.80554 c 66.74913,40.5312 167.46834,54.87653 256.61463,-10.50508 -89.88085,6.91489 -163.90847,17.40263 -256.61463,10.50508 z"
       id="path4872"
       inkscape:connector-curvature="0"
       sodipodi:nodetypes="ccc" />
    <g
       id="g4931"
       transform="translate(15,14.253464)">
      <path
         sodipodi:nodetypes="sssss"
         inkscape:connector-curvature="0"
         id="path4874"
         d="m 345.47218,470.00928 c 0,19.80516 -22.51024,11.89159 -41.61804,11.89159 -19.10779,0 -27.57741,7.91357 -27.57741,-11.89159 0,-19.80516 15.48992,-35.86042 34.59772,-35.86042 19.1078,0 34.59773,16.05526 34.59773,35.86042 z"
         style="fill:#ffffff;fill-opacity:1;stroke:#000000;stroke-width:10;stroke-linejoin:bevel;stroke-miterlimit:4;stroke-dasharray:none;stroke-opacity:1" />
      <ellipse
         ry="4.6428571"
         rx="5"
         cy="464.50507"
         cx="309.28574"
         id="path4892-6"
         style="fill:#ffffff;fill-opacity:1;stroke:#000000;stroke-width:10;stroke-linejoin:bevel;stroke-miterlimit:4;stroke-dasharray:none;stroke-opacity:1" />
    </g>
    <g
       id="g4927"
       transform="translate(15,19.285714)">
      <path
         sodipodi:nodetypes="sssss"
         inkscape:connector-curvature="0"
         id="path4874-1"
         d="m 434.68799,464.97703 c 0,19.80516 22.51024,11.89159 41.61804,11.89159 19.10779,0 27.57741,7.91357 27.57741,-11.89159 0,-19.80516 -15.48992,-35.86042 -34.59772,-35.86042 -19.1078,0 -34.59773,16.05526 -34.59773,35.86042 z"
         style="fill:#ffffff;fill-opacity:1;stroke:#000000;stroke-width:10;stroke-linejoin:bevel;stroke-miterlimit:4;stroke-dasharray:none;stroke-opacity:1" />
      <ellipse
         transform="scale(-1,1)"
         ry="4.6428571"
         rx="5"
         cy="459.47281"
         cx="-470.87445"
         id="path4892-6-1"
         style="fill:#ffffff;fill-opacity:1;stroke:#000000;stroke-width:10;stroke-linejoin:bevel;stroke-miterlimit:4;stroke-dasharray:none;stroke-opacity:1" />
    </g>
    <ellipse
       style="fill:#d5f6ff;fill-opacity:1;stroke:#ffdd55;stroke-width:10;stroke-linejoin:bevel;stroke-miterlimit:4;stroke-dasharray:none;stroke-opacity:1"
       id="path4937"
       cx="491.69174"
       cy="479.10065"
       rx="55.305851"
       ry="63.63961" />
    <ellipse
       style="fill:none;fill-opacity:1;stroke:#ffdd55;stroke-width:10;stroke-linejoin:bevel;stroke-miterlimit:4;stroke-dasharray:none;stroke-opacity:1"
       id="path4943"
       cx="561.13971"
       cy="582.6413"
       rx="9.5964489"
       ry="10.606602" />
    <ellipse
       style="fill:none;fill-opacity:1;stroke:#ffdd55;stroke-width:10;stroke-linejoin:bevel;stroke-miterlimit:4;stroke-dasharray:none;stroke-opacity:1"
       id="path4943-5"
       cx="547.14288"
       cy="560.21936"
       rx="9.5964489"
       ry="10.606602" />
    <ellipse
       style="fill:none;fill-opacity:1;stroke:#ffdd55;stroke-width:10;stroke-linejoin:bevel;stroke-miterlimit:4;stroke-dasharray:none;stroke-opacity:1"
       id="path4943-7"
       cx="532.14288"
       cy="538.07648"
       rx="9.5964489"
       ry="10.606602" />
  </g>
</svg>
