<?xml version="1.0" encoding="UTF-8" standalone="no"?>
<!-- Created with Inkscape (http://www.inkscape.org/) -->

<svg
   xmlns:dc="http://purl.org/dc/elements/1.1/"
   xmlns:cc="http://creativecommons.org/ns#"
   xmlns:rdf="http://www.w3.org/1999/02/22-rdf-syntax-ns#"
   xmlns:svg="http://www.w3.org/2000/svg"
   xmlns="http://www.w3.org/2000/svg"
   xmlns:sodipodi="http://sodipodi.sourceforge.net/DTD/sodipodi-0.dtd"
   xmlns:inkscape="http://www.inkscape.org/namespaces/inkscape"
   width="300"
   height="300"
   viewBox="0 0 300 300"
   id="svg4166"
   version="1.1"
   inkscape:version="0.91 r13725"
   sodipodi:docname="Celery.svg"
   inkscape:export-filename="C:\Users\Shep\Documents\GitHub\VelocidataGamejam2015.github.io\S_GreedyCelery.png"
   inkscape:export-xdpi="90"
   inkscape:export-ydpi="90">
  <defs
     id="defs4168" />
  <sodipodi:namedview
     id="base"
     pagecolor="#ffffff"
     bordercolor="#666666"
     borderopacity="1.0"
     inkscape:pageopacity="0.0"
     inkscape:pageshadow="2"
     inkscape:zoom="2.8"
     inkscape:cx="130.85062"
     inkscape:cy="159.53239"
     inkscape:document-units="px"
     inkscape:current-layer="layer1"
     showgrid="false"
     inkscape:window-width="1920"
     inkscape:window-height="1017"
     inkscape:window-x="-8"
     inkscape:window-y="-8"
     inkscape:window-maximized="1"
     units="px" />
  <metadata
     id="metadata4171">
    <rdf:RDF>
      <cc:Work
         rdf:about="">
        <dc:format>image/svg+xml</dc:format>
        <dc:type
           rdf:resource="http://purl.org/dc/dcmitype/StillImage" />
        <dc:title></dc:title>
      </cc:Work>
    </rdf:RDF>
  </metadata>
  <g
     inkscape:groupmode="layer"
     id="layer8"
     inkscape:label="BoundingBox"
     sodipodi:insensitive="true"
     style="display:inline">
    <rect
       style="fill:none;fill-opacity:1;stroke:#000000;stroke-width:1;stroke-linejoin:bevel;stroke-miterlimit:4;stroke-dasharray:none;stroke-opacity:1"
       id="rect15863"
       width="100"
       height="100"
       x="100.5"
       y="851.86218"
       transform="translate(0,-752.36216)" />
  </g>
  <g
     inkscape:label="Layer 1"
     inkscape:groupmode="layer"
     id="layer1"
     transform="translate(0,-752.36216)">
    <g
       id="g15867"
       transform="translate(-2.7460637,0)">
      <path
         inkscape:connector-curvature="0"
         id="path4868"
         d="m 133.64804,852.29463 37.65652,3.80187 -8.27989,50.48015 -19.62223,-0.84485 z"
         style="fill:#8dd35f;fill-opacity:1;fill-rule:evenodd;stroke:#000000;stroke-width:0.10834543px;stroke-linecap:butt;stroke-linejoin:miter;stroke-opacity:1" />
      <path
         sodipodi:nodetypes="sssss"
         inkscape:connector-curvature="0"
         id="path4835"
         d="m 169.94349,832.12369 c 0,10.32356 0.55164,7.92053 -16.95679,7.92053 -17.50843,0 -15.70912,-1.39883 -15.70912,-11.72237 0,-10.32356 -6.33623,-21.75505 11.17219,-21.75505 17.50843,0 21.49372,15.23335 21.49372,25.55689 z"
         style="fill:#00aa00;fill-opacity:1;stroke:#000000;stroke-width:1.08345413;stroke-linejoin:bevel;stroke-miterlimit:4;stroke-dasharray:none;stroke-opacity:1" />
      <path
         sodipodi:nodetypes="sssss"
         inkscape:connector-curvature="0"
         id="path4829"
         d="m 141.81451,842.57879 c 0,12.42325 -0.22684,11.77518 -5.89801,16.05227 -7.78829,5.87377 -16.1061,-4.89629 -16.1061,-17.31956 0,-12.42324 -9.90928,-21.01579 0.11342,-21.01579 10.02271,0 21.89069,9.85982 21.89069,22.28308 z"
         style="fill:#00aa00;fill-opacity:1;stroke:#000000;stroke-width:1.08345413;stroke-linejoin:bevel;stroke-miterlimit:4;stroke-dasharray:none;stroke-opacity:1" />
      <path
         sodipodi:nodetypes="ccccc"
         inkscape:connector-curvature="0"
         id="path4722"
         d="m 139.84901,920.4926 c 3.2284,1.7093 5.13052,1.03873 7.01772,0.63474 l 0.64162,5.60065 -5.17306,0.11202 z"
         style="fill:#c6e9af;fill-rule:evenodd;stroke:#000000;stroke-width:0.10834543px;stroke-linecap:butt;stroke-linejoin:miter;stroke-opacity:1" />
      <path
         sodipodi:nodetypes="ccccc"
         inkscape:connector-curvature="0"
         id="path4724"
         d="m 144.42055,919.8952 c 3.47101,0.68383 6.48733,0.16198 9.42378,-1.34416 l 0,7.91559 -10.34611,0.22402 z"
         style="fill:#c6e9af;fill-rule:evenodd;stroke:#000000;stroke-width:0.10834543px;stroke-linecap:butt;stroke-linejoin:miter;stroke-opacity:1" />
      <path
         sodipodi:nodetypes="ccccc"
         inkscape:connector-curvature="0"
         id="path4728"
         d="m 159.29809,920.00721 c 1.58547,0.54585 3.03642,1.95716 5.13295,1.45616 l -2.08527,5.11528 -3.28829,-0.18669 z"
         style="fill:#c6e9af;fill-rule:evenodd;stroke:#000000;stroke-width:0.10834543px;stroke-linecap:butt;stroke-linejoin:miter;stroke-opacity:1" />
      <path
         sodipodi:nodetypes="ccccc"
         inkscape:connector-curvature="0"
         id="path4726"
         d="m 151.75907,920.38058 c 2.87036,0.18526 5.14331,1.1747 8.70195,0.26136 l 0.44112,5.63801 -10.4664,0.44805 z"
         style="fill:#c6e9af;fill-rule:evenodd;stroke:#000000;stroke-width:0.10834543px;stroke-linecap:butt;stroke-linejoin:miter;stroke-opacity:1" />
      <path
         sodipodi:nodetypes="ccccc"
         inkscape:connector-curvature="0"
         id="path4730"
         d="m 142.21499,926.54132 c 6.73101,-0.11202 13.49376,-0.22403 20.33129,-0.33604 l -0.3208,0.63473 c -6.40638,0.0817 -13.05646,0.0663 -19.89019,0.14936 z"
         style="fill:#c87137;fill-rule:evenodd;stroke:#000000;stroke-width:0.10834543px;stroke-linecap:butt;stroke-linejoin:miter;stroke-opacity:1" />
      <g
         style="stroke-width:3.43254256;stroke-miterlimit:4;stroke-dasharray:none"
         transform="matrix(0.09495941,0,0,0.09442646,120.48847,826.23712)"
         id="g4819">
        <path
           style="fill:#c87137;fill-opacity:1;stroke:#241c1c;stroke-width:3.43254256;stroke-linejoin:bevel;stroke-miterlimit:4;stroke-dasharray:none;stroke-opacity:1"
           d="m 533.30177,158.13394 c 0,90.75521 -73.72725,128.73258 -167.87258,128.73258 -94.14533,0 -160.0947,-39.16384 -160.0947,-129.91906 0,-90.755206 29.6526,-201.107583 123.79793,-201.107583 94.14533,0 204.16935,111.538851 204.16935,202.294063 z"
           id="path4732"
           inkscape:connector-curvature="0"
           sodipodi:nodetypes="sssss" />
        <path
           style="fill:#784421;fill-rule:evenodd;stroke:#000000;stroke-width:3.43254256;stroke-linecap:butt;stroke-linejoin:miter;stroke-miterlimit:4;stroke-dasharray:none;stroke-opacity:1"
           d="M 250.40442,-3.3408455 182.00086,-95.178557 c 33.21001,-20.971103 26.66619,-66.240753 121.85345,-62.883193 46.20405,-27.18205 106.79201,-70.0215 152.96497,22.54303 L 422.1985,-14.450954 c -40.70341,-11.674173 -72.22407,-26.492638 -92.35278,-10.246449 -18.92902,-4.791163 -28.21304,5.61712 -79.4413,21.3565575 z"
           id="path4735"
           inkscape:connector-curvature="0"
           sodipodi:nodetypes="ccccccc" />
        <path
           style="fill:none;fill-rule:evenodd;stroke:#000000;stroke-width:3.43254256;stroke-linecap:butt;stroke-linejoin:miter;stroke-miterlimit:4;stroke-dasharray:none;stroke-opacity:1"
           d="m 302.558,-159.24823 25.45446,132.525388"
           id="path4737"
           inkscape:connector-curvature="0"
           sodipodi:nodetypes="cc" />
        <path
           style="fill:#deaa87;fill-rule:evenodd;stroke:#000000;stroke-width:3.43254256;stroke-linecap:butt;stroke-linejoin:miter;stroke-miterlimit:4;stroke-dasharray:none;stroke-opacity:1"
           d="m 235.33396,-16.128884 c 72.70981,-34.254317 100.37078,-40.6725 200.42976,-30.823663 14.7351,13.531304 -3.4576,31.627701 -3.4576,31.627701 -78.53781,-10.306997 -123.93125,-29.437537 -187.89797,22.9254692 0,0 -17.99793,-6.85102835 -9.07419,-23.7295072 z"
           id="path4739"
           inkscape:connector-curvature="0"
           sodipodi:nodetypes="ccccc" />
        <path
           inkscape:connector-curvature="0"
           style="font-style:normal;font-weight:normal;font-size:305.17581177px;line-height:125%;font-family:sans-serif;letter-spacing:0px;word-spacing:0px;fill:#ffeeaa;fill-opacity:1;stroke:#000000;stroke-width:3.43254256;stroke-linecap:butt;stroke-linejoin:miter;stroke-miterlimit:4;stroke-dasharray:none;stroke-opacity:1"
           d="m 369.00781,12.402344 -15.0664,3.044922 3.3125,16.380859 c -4.51577,0.618148 -8.97234,1.364088 -13.36329,2.251953 -4.96846,1.004643 -9.67961,2.173949 -14.15039,3.494141 l -3.34765,-16.556641 -15.06641,3.046875 3.79492,18.771485 c -11.4475,4.96701 -20.75198,11.293234 -27.89062,18.992187 -12.28971,13.345108 -16.60366,29.077888 -12.93945,47.199215 3.16454,15.65024 10.86796,26.81001 23.10742,33.48047 9.56078,5.2106 22.80124,8.18834 39.6875,8.95313 l 15.5332,76.81836 c -4.69082,0.16612 -9.45582,0.11107 -14.29687,-0.16407 -12.87167,-0.73153 -26.31711,-2.96653 -40.33594,-6.70507 l 5.77344,28.55468 c 14.12966,1.62033 27.58182,2.28248 40.35351,1.98633 4.50268,-0.11089 8.88135,-0.34579 13.15234,-0.68945 l 4.05469,20.05273 15.06836,-3.04687 -3.80469,-18.81641 c 2.4793,-0.39305 4.92292,-0.8215 7.3125,-1.30469 7.18695,-1.45322 13.87631,-3.13465 20.07813,-5.03906 l 3.96094,19.58985 15.0664,-3.04688 -4.41601,-21.84375 c 11.86053,-5.04392 21.33823,-11.17857 28.39648,-18.42187 13.05187,-13.3087 17.57051,-29.89366 13.55469,-49.75391 -3.36811,-16.65698 -11.64535,-28.79587 -24.83203,-36.41797 -10.12655,-5.97824 -23.58616,-9.39495 -40.34766,-10.27539 L 377.28516,53.335938 c 2.01207,-0.01801 4.03751,-0.0094 6.09179,0.05273 11.06613,0.33451 23.06509,1.81464 35.9961,4.439453 L 413.9043,30.783203 c -12.51281,-1.089888 -24.59115,-1.362652 -36.23438,-0.818359 -1.69271,0.07913 -3.37426,0.182762 -5.05078,0.296875 l -3.61133,-17.859375 z m -7.20703,41.914062 13.84961,68.494144 -19.56055,0.40039 c -3.19407,0.11503 -6.15519,0.14178 -9.00586,0.1289 L 334.42969,60.759766 c 5.21364,-1.939718 11.07185,-3.569546 17.58593,-4.886719 3.19476,-0.645992 6.46133,-1.155607 9.78516,-1.556641 z m -41.61328,13.572266 11.02539,54.529298 c -5.18867,-0.69408 -9.35307,-1.76832 -12.49023,-3.22656 -7.05579,-3.43175 -11.49993,-9.67762 -13.33204,-18.73829 -2.18371,-10.799576 0.74198,-20.061527 8.77735,-27.783198 1.78619,-1.699207 3.80209,-3.28849 6.01953,-4.78125 z m 54.76562,83.085938 c 2.22192,-0.0135 4.35295,0.0233 6.41211,0.0996 l 13.91797,68.82812 c -5.83018,2.30468 -12.46831,4.21783 -19.93945,5.72852 -2.41658,0.48864 -4.86121,0.89589 -7.32227,1.25391 l -15.23046,-75.3125 19.11132,-0.55079 c 1.03294,-0.0243 2.05081,-0.0408 3.05078,-0.0469 z m 22.4668,1.93945 c 4.44171,0.95711 8.2498,2.26293 11.40625,3.92969 8.19169,4.24997 13.30418,11.40916 15.33985,21.47656 2.33176,11.53176 -0.7414,21.39345 -9.22071,29.58594 -1.64996,1.59415 -3.4847,3.09837 -5.49219,4.51953 l -12.0332,-59.51172 z"
           id="text4780" />
        <path
           style="fill:#deaa87;fill-rule:evenodd;stroke:#000000;stroke-width:3.43254256;stroke-linecap:butt;stroke-linejoin:miter;stroke-miterlimit:4;stroke-dasharray:none;stroke-opacity:1"
           d="m 324.06109,-14.374082 c 18.61473,13.6639532 26.81062,32.529384 32.08211,52.854784 -12.56586,20.77858 -21.22182,14.121171 -30.24885,10.067577 3.75575,-27.181881 -3.17449,-44.5621203 -20.62422,-67.117185 z"
           id="path4760"
           inkscape:connector-curvature="0"
           sodipodi:nodetypes="ccccc" />
        <path
           sodipodi:nodetypes="ccccc"
           inkscape:connector-curvature="0"
           id="path4756"
           d="M 234.12386,-1.2173335 C 306.83367,-35.471649 338.16117,-36.856044 438.22015,-27.007207 452.95524,-13.475904 442.0956,-3.3496716 442.0956,-3.3496716 363.645,-12.539113 306.32907,-27.135743 241.36478,12.444596 c 0,0 -16.16466,3.21655 -7.24092,-13.6619295 z"
           style="fill:#deaa87;fill-rule:evenodd;stroke:#000000;stroke-width:3.43254256;stroke-linecap:butt;stroke-linejoin:miter;stroke-miterlimit:4;stroke-dasharray:none;stroke-opacity:1" />
        <path
           style="fill:#deaa87;fill-rule:evenodd;stroke:#000000;stroke-width:3.43254256;stroke-linecap:butt;stroke-linejoin:miter;stroke-miterlimit:4;stroke-dasharray:none;stroke-opacity:1"
           d="m 324.5194,-47.093709 c -3.69275,-8.998775 -9.7513,-5.682714 -18.33264,2.097413 -12.05635,29.929651 -31.09816,39.147724 -29.79054,100.675774 7.35879,3.960778 14.06569,10.308199 26.12402,-2.936373 -12.48202,-39.324311 11.19108,-67.61807 21.99916,-99.836814 z"
           id="path4758"
           inkscape:connector-curvature="0"
           sodipodi:nodetypes="ccccc" />
      </g>
      <path
         sodipodi:nodetypes="sssss"
         inkscape:connector-curvature="0"
         id="path4831"
         d="m 184.57509,846.32783 c 0,13.26899 -5.08296,17.05555 -14.29134,17.05555 -9.20836,0 -4.4235,-4.20899 -4.4235,-17.47796 0,-13.26898 11.32124,-24.34243 20.52961,-24.34243 9.20836,0 -1.81477,11.49587 -1.81477,24.76484 z"
         style="fill:#00aa00;fill-opacity:1;stroke:#000000;stroke-width:1.08345413;stroke-linejoin:bevel;stroke-miterlimit:4;stroke-dasharray:none;stroke-opacity:1" />
      <path
         sodipodi:nodetypes="cccscccscccc"
         inkscape:connector-curvature="0"
         id="path4714"
         d="m 156.53111,926.31729 9.72159,-65.14482 c 10.83283,-26.9293 12.74848,-24.16055 7.85982,1.26948 0,0 -4.34774,37.5811 -8.99214,56.68833 -0.62204,2.55912 -2.7345,7.44837 -2.7345,7.44837 z m -14.19582,0.44804 c 0,0 -2.36923,-5.46435 -3.10478,-8.31901 -5.14716,-19.97568 -9.00578,-61.05447 -9.00578,-61.05447 1.58631,-4.30788 -4.01975,-36.43293 8.10044,0 l 9.22327,69.2988 z"
         style="fill:#8dd35f;fill-rule:evenodd;stroke:#000000;stroke-width:1.08345413;stroke-linecap:butt;stroke-linejoin:miter;stroke-miterlimit:4;stroke-dasharray:none;stroke-opacity:1" />
      <path
         sodipodi:nodetypes="sssss"
         inkscape:connector-curvature="0"
         id="path4833"
         d="m 152.92999,851.60819 c 0,8.77794 -0.14496,12.40882 -7.59936,12.40882 -7.4544,0 -9.64098,-7.43273 -9.64098,-16.21067 0,-8.77794 2.30002,-10.93033 9.7544,-10.93033 7.45439,0 7.48594,5.95424 7.48594,14.73218 z"
         style="fill:#00aa00;fill-opacity:1;stroke:#000000;stroke-width:1.08345413;stroke-linejoin:bevel;stroke-miterlimit:4;stroke-dasharray:none;stroke-opacity:1" />
      <path
         sodipodi:nodetypes="ccccsc"
         inkscape:connector-curvature="0"
         id="path4716"
         d="m 141.81279,862.1857 c 2.1726,-14.56537 4.53826,-13.19184 8.60014,-0.39899 l 2.66948,64.67992 -9.62429,0.22402 c 0,0 1.06086,-6.05518 1.16902,-9.11267 0.72354,-20.4531 -2.81435,-55.39228 -2.81435,-55.39228 z"
         style="fill:#8dd35f;fill-rule:evenodd;stroke:#000000;stroke-width:1.08345413;stroke-linecap:butt;stroke-linejoin:miter;stroke-miterlimit:4;stroke-dasharray:none;stroke-opacity:1" />
      <path
         sodipodi:nodetypes="sssss"
         inkscape:connector-curvature="0"
         id="path4833-1"
         d="m 166.65421,852.18903 c 0,8.77793 -3.32081,10.19107 -10.77522,10.19107 -7.45439,0 -3.96981,-5.74303 -1.58792,-13.6761 2.53824,-8.45381 2.64028,-10.93033 10.09467,-10.93033 7.4544,0 2.26847,5.63743 2.26847,14.41536 z"
         style="fill:#00aa00;fill-opacity:1;stroke:#000000;stroke-width:1.08345413;stroke-linejoin:bevel;stroke-miterlimit:4;stroke-dasharray:none;stroke-opacity:1" />
      <path
         sodipodi:nodetypes="ccsccsc"
         inkscape:connector-curvature="0"
         id="path4718"
         d="m 154.02066,861.89672 c 13.12883,-27.98506 8.70382,-11.97092 7.29173,-0.42245 0,0 -1.21831,36.57243 -0.98406,56.62117 0.0323,2.7703 0.53371,8.29652 0.53371,8.29652 l -10.26591,0.37338 c 0,0 1.40305,-6.53986 1.6637,-9.85698 1.53918,-19.58828 1.76083,-55.01164 1.76083,-55.01164 z"
         style="fill:#8dd35f;fill-rule:evenodd;stroke:#000000;stroke-width:1.08345413;stroke-linecap:butt;stroke-linejoin:miter;stroke-miterlimit:4;stroke-dasharray:none;stroke-opacity:1" />
      <path
         sodipodi:nodetypes="ccc"
         inkscape:connector-curvature="0"
         id="path4872"
         d="m 137.53362,897.70319 c 7.49481,4.23737 18.8039,5.73712 28.81354,-1.09826 -10.09213,0.72293 -18.40419,1.81938 -28.81354,1.09826 z"
         style="fill:#ffffff;fill-rule:evenodd;stroke:#000000;stroke-width:1.08345413;stroke-linecap:butt;stroke-linejoin:miter;stroke-miterlimit:4;stroke-dasharray:none;stroke-opacity:1" />
      <g
         transform="matrix(0.11228332,0,0,0.10454563,109.13151,825.92717)"
         id="g4931">
        <path
           style="fill:#ffffff;fill-opacity:1;stroke:#000000;stroke-width:10;stroke-linejoin:bevel;stroke-miterlimit:4;stroke-dasharray:none;stroke-opacity:1"
           d="m 345.47218,470.00928 c 0,19.80516 -22.51024,11.89159 -41.61804,11.89159 -19.10779,0 -27.57741,7.91357 -27.57741,-11.89159 0,-19.80516 15.48992,-35.86042 34.59772,-35.86042 19.1078,0 34.59773,16.05526 34.59773,35.86042 z"
           id="path4874"
           inkscape:connector-curvature="0"
           sodipodi:nodetypes="sssss" />
        <ellipse
           style="fill:#ffffff;fill-opacity:1;stroke:#000000;stroke-width:10;stroke-linejoin:bevel;stroke-miterlimit:4;stroke-dasharray:none;stroke-opacity:1"
           id="path4892-6"
           cx="309.28574"
           cy="464.50507"
           rx="5"
           ry="4.6428571" />
      </g>
      <g
         transform="matrix(0.11228332,0,0,0.10454563,109.13151,826.45328)"
         id="g4927">
        <path
           style="fill:#ffffff;fill-opacity:1;stroke:#000000;stroke-width:10;stroke-linejoin:bevel;stroke-miterlimit:4;stroke-dasharray:none;stroke-opacity:1"
           d="m 434.68799,464.97703 c 0,19.80516 22.51024,11.89159 41.61804,11.89159 19.10779,0 27.57741,7.91357 27.57741,-11.89159 0,-19.80516 -15.48992,-35.86042 -34.59772,-35.86042 -19.1078,0 -34.59773,16.05526 -34.59773,35.86042 z"
           id="path4874-1"
           inkscape:connector-curvature="0"
           sodipodi:nodetypes="sssss" />
        <ellipse
           style="fill:#ffffff;fill-opacity:1;stroke:#000000;stroke-width:10;stroke-linejoin:bevel;stroke-miterlimit:4;stroke-dasharray:none;stroke-opacity:1"
           id="path4892-6-1"
           cx="-470.87445"
           cy="459.47281"
           rx="5"
           ry="4.6428571"
           transform="scale(-1,1)" />
      </g>
      <ellipse
         ry="6.6532431"
         rx="6.2099252"
         cy="874.5249"
         cx="162.65602"
         id="path4937"
         style="fill:#d5f6ff;fill-opacity:1;stroke:#ffdd55;stroke-width:1.08345413;stroke-linejoin:bevel;stroke-miterlimit:4;stroke-dasharray:none;stroke-opacity:1" />
      <ellipse
         ry="1.1088738"
         rx="1.0775211"
         cy="885.34967"
         cx="170.45387"
         id="path4943"
         style="fill:none;fill-opacity:1;stroke:#ffdd55;stroke-width:1.08345413;stroke-linejoin:bevel;stroke-miterlimit:4;stroke-dasharray:none;stroke-opacity:1" />
      <ellipse
         ry="1.1088738"
         rx="1.0775211"
         cy="883.00555"
         cx="168.88228"
         id="path4943-5"
         style="fill:none;fill-opacity:1;stroke:#ffdd55;stroke-width:1.08345413;stroke-linejoin:bevel;stroke-miterlimit:4;stroke-dasharray:none;stroke-opacity:1" />
      <ellipse
         ry="1.1088738"
         rx="1.0775211"
         cy="880.69061"
         cx="167.19801"
         id="path4943-7"
         style="fill:none;fill-opacity:1;stroke:#ffdd55;stroke-width:1.08345413;stroke-linejoin:bevel;stroke-miterlimit:4;stroke-dasharray:none;stroke-opacity:1" />
    </g>
  </g>
</svg>
