<?xml version="1.0" encoding="UTF-8" standalone="no"?>
<!-- Created with Inkscape (http://www.inkscape.org/) -->

<svg
   xmlns:dc="http://purl.org/dc/elements/1.1/"
   xmlns:cc="http://creativecommons.org/ns#"
   xmlns:rdf="http://www.w3.org/1999/02/22-rdf-syntax-ns#"
   xmlns:svg="http://www.w3.org/2000/svg"
   xmlns="http://www.w3.org/2000/svg"
   xmlns:sodipodi="http://sodipodi.sourceforge.net/DTD/sodipodi-0.dtd"
   xmlns:inkscape="http://www.inkscape.org/namespaces/inkscape"
   width="300"
   height="300"
   viewBox="0 0 300 300"
   id="svg13967"
   version="1.1"
   inkscape:version="0.91 r13725"
   sodipodi:docname="Eggplant.svg"
   inkscape:export-filename="C:\Users\Shep\Documents\GitHub\VelocidataGamejam2015.github.io\Assets\Monsters\S_SlothfulPotato.png"
   inkscape:export-xdpi="90"
   inkscape:export-ydpi="90">
  <defs
     id="defs13969" />
  <sodipodi:namedview
     id="base"
     pagecolor="#ffffff"
     bordercolor="#666666"
     borderopacity="1.0"
     inkscape:pageopacity="0.0"
     inkscape:pageshadow="2"
     inkscape:zoom="2.8"
     inkscape:cx="58.773264"
     inkscape:cy="167.61719"
     inkscape:document-units="px"
     inkscape:current-layer="layer5"
     showgrid="false"
     units="px"
     inkscape:window-width="1920"
     inkscape:window-height="1017"
     inkscape:window-x="-8"
     inkscape:window-y="-8"
     inkscape:window-maximized="1" />
  <metadata
     id="metadata13972">
    <rdf:RDF>
      <cc:Work
         rdf:about="">
        <dc:format>image/svg+xml</dc:format>
        <dc:type
           rdf:resource="http://purl.org/dc/dcmitype/StillImage" />
        <dc:title></dc:title>
      </cc:Work>
    </rdf:RDF>
  </metadata>
  <g
     inkscape:label="BoundingBox"
     inkscape:groupmode="layer"
     id="layer1"
     transform="translate(0,-752.36216)"
     style="display:inline"
     sodipodi:insensitive="true">
    <rect
       style="fill:#ffffff;fill-opacity:1;stroke:#000000;stroke-width:0.25;stroke-linecap:square;stroke-linejoin:round;stroke-miterlimit:4;stroke-dasharray:none;stroke-opacity:1"
       id="rect14515"
       width="100"
       height="100"
       x="100.125"
       y="852.23718" />
  </g>
  <g
     inkscape:groupmode="layer"
     id="layer5"
     inkscape:label="Creature"
     style="display:inline">
    <path
       style="fill:#441650;fill-rule:evenodd;stroke:#000000;stroke-width:2;stroke-linecap:butt;stroke-linejoin:miter;stroke-opacity:1;stroke-miterlimit:4;stroke-dasharray:none"
       d="m 131.78572,94.285716 c -4.74758,2.167883 -9.18468,6.205284 -11.07143,11.071434 -4.71742,12.16676 3.55694,41.10072 2.5,54.10714 -0.81792,10.06501 -6.83803,17.22681 -2.67858,26.42857 3.4912,7.72342 13.69122,13.13971 22.14286,12.49999 10.48435,-0.79358 28.82695,-6.87087 31.07143,-17.14285 4.85873,-22.23627 -10.59254,-64.22792 -21.45676,-82.256465 -2.03428,-3.375773 -6.64675,-4.629288 -10.50752,-5.422109 -3.27352,-0.672227 -6.96011,-0.673815 -10,0.71429 z"
       id="path15093"
       inkscape:connector-curvature="0"
       sodipodi:nodetypes="sssssssss" />
    <path
       style="fill:none;fill-rule:evenodd;stroke:#000000;stroke-width:1px;stroke-linecap:round;stroke-linejoin:round;stroke-opacity:1"
       d="m 136.69642,108.48214 c 0,0 7.05809,-1.45725 8.30358,-3.92857 0.36065,-0.71562 -0.89286,-2.23214 -0.89286,-2.23214"
       id="path15099"
       inkscape:connector-curvature="0"
       sodipodi:nodetypes="csc" />
    <path
       style="fill:none;fill-rule:evenodd;stroke:#000000;stroke-width:1px;stroke-linecap:round;stroke-linejoin:round;stroke-opacity:1"
       d="m 148.48215,101.33928 c 0,0 -0.0722,1.64489 0.5357,1.87501 1.92112,0.72723 5.35715,0.44642 5.35715,0.44642"
       id="path15101"
       inkscape:connector-curvature="0"
       sodipodi:nodetypes="csc" />
    <path
       style="fill:none;fill-rule:evenodd;stroke:#000000;stroke-width:1px;stroke-linecap:round;stroke-linejoin:miter;stroke-opacity:1"
       d="m 149.46429,121.51786 c 0,0 1.18933,-5.30836 3.30357,-6.51786 0.82828,-0.47384 2.85714,0.17857 2.85714,0.17857"
       id="path15103"
       inkscape:connector-curvature="0"
       sodipodi:nodetypes="csc" />
    <path
       style="fill:#afe9af;fill-rule:evenodd;stroke:#000000;stroke-width:2;stroke-linecap:butt;stroke-linejoin:miter;stroke-opacity:1;stroke-miterlimit:4;stroke-dasharray:none"
       d="m 114.39978,100.62114 c -4.10502,-8.74497 1.76529,-11.192948 3.03045,-20.455588 6.31326,3.599526 13.10285,-1.901788 20.45559,3.409265 l 1.51523,10.985409 c -8.58353,-1.381454 -14.04761,5.704174 -20.45559,10.227794 z"
       id="path15107"
       inkscape:connector-curvature="0"
       sodipodi:nodetypes="cccccc" />
    <path
       style="fill:#217821;fill-rule:evenodd;stroke:#000000;stroke-width:2;stroke-linecap:butt;stroke-linejoin:miter;stroke-opacity:1;stroke-miterlimit:4;stroke-dasharray:none"
       d="m 148.11362,95.31784 c -13.83814,-2.145558 -21.68022,6.78533 -28.53681,14.89975 -3.58197,-0.41395 -4.89248,-4.38646 -6.81853,-7.44988 3.28299,-0.01 5.42957,-0.94506 8.71256,-2.904183 1.77401,-3.676143 -0.97492,-11.181766 -0.88388,-15.531096 2.21555,1.799774 8.51421,7.024441 13.38452,7.828682 3.19317,-2.82283 1.07293,-15.057764 2.39911,-18.81409 3.95247,3.707851 9.47078,16.582737 11.74303,21.970817 z"
       id="path15105"
       inkscape:connector-curvature="0"
       sodipodi:nodetypes="cccccccc" />
    <path
       style="fill:#504416;fill-rule:evenodd;stroke:#000000;stroke-width:2;stroke-linecap:butt;stroke-linejoin:miter;stroke-opacity:1;stroke-miterlimit:4;stroke-dasharray:none"
       d="m 174.28571,124.10714 -10.53571,44.10715 3.92857,1.96428 10.35714,-46.60714 z"
       id="path15111"
       inkscape:connector-curvature="0" />
    <ellipse
       style="fill:#a0892c;fill-opacity:1;stroke:#000000;stroke-width:2;stroke-linecap:round;stroke-linejoin:round;stroke-miterlimit:4;stroke-dasharray:none;stroke-opacity:1"
       id="path15109"
       cx="177.14285"
       cy="120.98215"
       rx="5.8928571"
       ry="4.5535712" />
  </g>
</svg>
