<?xml version="1.0" encoding="UTF-8" standalone="no"?>
<!-- Created with Inkscape (http://www.inkscape.org/) -->

<svg
   xmlns:dc="http://purl.org/dc/elements/1.1/"
   xmlns:cc="http://creativecommons.org/ns#"
   xmlns:rdf="http://www.w3.org/1999/02/22-rdf-syntax-ns#"
   xmlns:svg="http://www.w3.org/2000/svg"
   xmlns="http://www.w3.org/2000/svg"
   xmlns:sodipodi="http://sodipodi.sourceforge.net/DTD/sodipodi-0.dtd"
   xmlns:inkscape="http://www.inkscape.org/namespaces/inkscape"
   width="210mm"
   height="297mm"
   viewBox="0 0 744.09448819 1052.3622047"
   id="svg4826"
   version="1.1"
   inkscape:version="0.91 r13725"
   sodipodi:docname="GluttonousTomato.svg">
  <defs
     id="defs4828" />
  <sodipodi:namedview
     id="base"
     pagecolor="#ffffff"
     bordercolor="#666666"
     borderopacity="1.0"
     inkscape:pageopacity="0.0"
     inkscape:pageshadow="2"
     inkscape:zoom="0.7"
     inkscape:cx="24.573545"
     inkscape:cy="410.12201"
     inkscape:document-units="px"
     inkscape:current-layer="layer1"
     showgrid="false"
     inkscape:window-width="1920"
     inkscape:window-height="1017"
     inkscape:window-x="-8"
     inkscape:window-y="-8"
     inkscape:window-maximized="1" />
  <metadata
     id="metadata4831">
    <rdf:RDF>
      <cc:Work
         rdf:about="">
        <dc:format>image/svg+xml</dc:format>
        <dc:type
           rdf:resource="http://purl.org/dc/dcmitype/StillImage" />
        <dc:title></dc:title>
      </cc:Work>
    </rdf:RDF>
  </metadata>
  <g
     inkscape:label="Layer 1"
     inkscape:groupmode="layer"
     id="layer1">
    <path
       style="fill:#d40000;fill-rule:evenodd;stroke:#000000;stroke-width:10;stroke-linecap:butt;stroke-linejoin:miter;stroke-opacity:1;stroke-miterlimit:4;stroke-dasharray:none"
       d="m 806.01999,674.37134 c -22.88049,-261.82256 -298.46987,-309.24337 -350,-309.28571 -51.53014,-0.0423 -102.39769,-6.65659 -167.29571,8.71324 -64.89802,-16.66468 -115.76557,-10.05039 -167.29571,-10.00809 -51.530133,0.0423 -327.11951,47.46315 -350,309.28571 -22.88049,261.82257 341.76064,285.03937 517.29571,248.50456 175.53507,37.82966 540.1762,14.61286 517.29571,-247.20971 z"
       id="path5374-6"
       inkscape:connector-curvature="0"
       sodipodi:nodetypes="zzczzcz" />
    <path
       style="fill:none;fill-rule:evenodd;stroke:#000000;stroke-width:10;stroke-linecap:round;stroke-linejoin:miter;stroke-miterlimit:10;stroke-dasharray:none;stroke-opacity:1"
       d="m -199.00005,727.29613 c -5.2523,-48.65527 70.28624,-49.51445 72.73098,-47.47716"
       id="path5380"
       inkscape:connector-curvature="0"
       sodipodi:nodetypes="cc" />
    <path
       style="fill:none;fill-rule:evenodd;stroke:#000000;stroke-width:10;stroke-linecap:round;stroke-linejoin:miter;stroke-miterlimit:10;stroke-dasharray:none;stroke-opacity:1"
       d="m 786.55014,718.48945 c -7.07107,-38.38579 -71.72083,-44.44671 -71.72083,-44.44671"
       id="path5380-2"
       inkscape:connector-curvature="0"
       sodipodi:nodetypes="cc" />
    <path
       style="fill:#89a02c;fill-rule:evenodd;stroke:#000000;stroke-width:10;stroke-linecap:butt;stroke-linejoin:miter;stroke-opacity:1;stroke-miterlimit:4;stroke-dasharray:none"
       d="m 114.14724,362.42802 c 30.47375,2.76043 64.99704,2.28123 82.83251,15.15228 8.43447,9.42442 -15.38248,26.01582 -29.29443,40.40611 22.58077,-8.46873 37.09599,-23.38989 71.72083,-22.22336 27.83674,19.26713 32.63023,48.13561 28.28427,80.8122 14.21544,-34.66724 27.28874,-69.56292 67.68023,-98.99495 27.27412,-0.84049 54.54823,0.066 81.82235,15.15229 -8.12485,-9.42809 -26.03728,-18.85618 -22.22335,-28.28427 l 21.2132,-2.0203 c -51.25468,-8.78307 -88.85844,-7.36635 -131.23875,0.43346 -59.0979,-11.06254 -123.29786,-11.28553 -170.79686,-0.43346 z"
       id="path5406"
       inkscape:connector-curvature="0"
       sodipodi:nodetypes="ccccccccccc" />
    <path
       style="fill:#677821;fill-rule:evenodd;stroke:#000000;stroke-width:10;stroke-linecap:butt;stroke-linejoin:miter;stroke-opacity:1;stroke-miterlimit:4;stroke-dasharray:none"
       d="m 284.86302,362.42802 c 14.63861,-23.74093 8.58892,-53.12413 49.49747,-69.70053 7.01737,14.45447 27.33002,18.27272 47.47717,22.22336 -51.47856,4.33352 -71.01668,27.83129 -96.97464,47.47717 z"
       id="path5408"
       inkscape:connector-curvature="0"
       sodipodi:nodetypes="cccc" />
    <path
       style="fill:#ff5555;fill-rule:evenodd;stroke:#000000;stroke-width:1px;stroke-linecap:butt;stroke-linejoin:miter;stroke-opacity:1"
       d="m 583.46289,787.31836 c -22.32923,9.47485 -41.63804,17.10141 -53.81445,20.77734 -4.99389,2.7032 -9.88539,4.68321 -14.47656,5.23438 -10.93301,1.3125 -22.96525,0.24676 -35.61915,-2.31055 -55.90212,-3.12647 -134.34972,-17.80612 -193.87695,-18.60742 -6.9768,33.39247 63.27973,42.39733 98.18164,52.86914 31.82939,9.54994 53.44215,38.04223 86.45828,34.08261 8.21905,-0.98572 30.44182,-26.43779 38.2968,-29.03299 31.64455,-10.45503 92.39112,-32.73701 75.76055,-61.61798 -0.29037,-0.50426 -0.59706,-0.96132 -0.91016,-1.39453 z"
       id="path5410"
       inkscape:connector-curvature="0"
       sodipodi:nodetypes="ccsccssssc" />
    <path
       style="fill:#ff5555;fill-rule:evenodd;stroke:#000000;stroke-width:1px;stroke-linecap:butt;stroke-linejoin:miter;stroke-opacity:1"
       d="m -60.191406,764.28711 c -9.150287,12.91762 -9.565182,25.74159 2.080517,40.30577 5.286969,6.61191 3.328285,31.74982 10.567982,37.73708 14.682156,12.14221 57.640592,-19.54042 71.280755,-13.7158 27.199428,11.6147 54.740959,2.27128 81.319702,1.57921 11.42008,-0.29737 21.83875,17.47569 33.33307,12.05663 9.58035,-4.51671 2.4726,-13.28395 11.00822,-21.40013 6.04696,-5.74982 30.5117,-10.16654 27.3785,-16.98464 -0.4668,-1.0158 -0.97703,-1.95336 -1.51562,-2.83398 -31.1874,3.7481 -61.73712,7.55256 -87.414064,8.83594 -10.785205,2.93012 -21.170363,4.5729 -30.269531,3.08789 -5.447624,-0.88907 -11.026613,-2.96416 -16.667969,-5.81446 -19.916641,-5.94552 -60.454149,-23.88978 -101.101562,-42.85351 z"
       id="path5412"
       inkscape:connector-curvature="0"
       sodipodi:nodetypes="csssssssccscc" />
    <path
       style="fill:#ff5555;fill-rule:evenodd;stroke:#000000;stroke-width:1px;stroke-linecap:butt;stroke-linejoin:miter;stroke-opacity:1"
       d="m 749.93945,711.28516 c -5.23337,2.50739 -34.88359,16.67449 -73.00195,34.27734 -0.10897,0.59522 -0.16087,1.17646 -0.13477,1.73438 0.40836,8.7291 16.38467,1.11046 26.79493,16.49414 12.19586,18.02234 46.48289,1.66721 40.88476,-10.4336 -3.40042,-7.35029 9.28104,-28.95383 7.57617,-36.87109 -0.41467,-1.92572 -1.13547,-3.67675 -2.11914,-5.20117 z"
       id="path5414"
       inkscape:connector-curvature="0"
       sodipodi:nodetypes="ccssssc" />
    <path
       style="fill:none;fill-rule:evenodd;stroke:#000000;stroke-width:10;stroke-linecap:round;stroke-linejoin:miter;stroke-miterlimit:10;stroke-dasharray:none;stroke-opacity:1"
       d="m -175,708.79078 c 0,0 191.716787,95.93588 224.010874,100.27483 51.853626,6.96693 159.158436,-17.11118 233.652486,-16.69847 76.3833,0.42318 185.83948,24.96025 237.69311,17.99332 32.29409,-4.33895 232.09209,-100.27483 232.09209,-100.27483"
       id="path5378"
       inkscape:connector-curvature="0"
       sodipodi:nodetypes="csssc" />
    <g
       id="g5484"
       transform="translate(26.812862,0)">
      <path
         sodipodi:nodetypes="zsssz"
         inkscape:connector-curvature="0"
         id="path5376"
         d="m 89.14286,467.36219 c 15.50389,0.22088 41.95376,22.54298 32.85714,35.7143 -11.71738,16.96602 -33.20392,7.09166 -51.428566,6.42858 -22.768802,-0.82841 -52.174355,5.42027 -45.714291,-16.42857 7.171516,-24.25507 48.781827,-25.93519 64.285717,-25.71431 z"
         style="fill:#ffd5d5;fill-rule:evenodd;stroke:#000000;stroke-width:10;stroke-linecap:butt;stroke-linejoin:miter;stroke-miterlimit:4;stroke-dasharray:none;stroke-opacity:1" />
      <path
         sodipodi:nodetypes="zsssz"
         inkscape:connector-curvature="0"
         id="path5376-5"
         d="m 434.67998,467.36219 c -15.50389,0.22088 -41.95376,22.54298 -32.85714,35.7143 11.71738,16.96602 33.20392,7.09166 51.42857,6.42858 22.7688,-0.82841 52.17435,5.42027 45.71429,-16.42857 -7.17152,-24.25507 -48.78183,-25.93519 -64.28572,-25.71431 z"
         style="fill:#ffd5d5;fill-rule:evenodd;stroke:#000000;stroke-width:10;stroke-linecap:butt;stroke-linejoin:miter;stroke-miterlimit:4;stroke-dasharray:none;stroke-opacity:1" />
    </g>
  </g>
</svg>
