<?xml version="1.0" encoding="UTF-8" standalone="no"?>
<!-- Created with Inkscape (http://www.inkscape.org/) -->

<svg
   xmlns:dc="http://purl.org/dc/elements/1.1/"
   xmlns:cc="http://creativecommons.org/ns#"
   xmlns:rdf="http://www.w3.org/1999/02/22-rdf-syntax-ns#"
   xmlns:svg="http://www.w3.org/2000/svg"
   xmlns="http://www.w3.org/2000/svg"
   xmlns:xlink="http://www.w3.org/1999/xlink"
   xmlns:sodipodi="http://sodipodi.sourceforge.net/DTD/sodipodi-0.dtd"
   xmlns:inkscape="http://www.inkscape.org/namespaces/inkscape"
   width="300"
   height="300"
   viewBox="0 0 300 300"
   id="svg5488"
   version="1.1"
   inkscape:version="0.91 r13725"
   sodipodi:docname="Pepper.svg"
   inkscape:export-filename="C:\Users\Shep\Documents\GitHub\VelocidataGamejam2015.github.io\Assets\Monsters\S_WrathfulPepper.png"
   inkscape:export-xdpi="90"
   inkscape:export-ydpi="90">
  <defs
     id="defs5490">
    <linearGradient
       inkscape:collect="always"
       id="linearGradient10711">
      <stop
         style="stop-color:#000000;stop-opacity:1;"
         offset="0"
         id="stop10713" />
      <stop
         style="stop-color:#000000;stop-opacity:0;"
         offset="1"
         id="stop10715" />
    </linearGradient>
    <linearGradient
       inkscape:collect="always"
       id="linearGradient10169">
      <stop
         style="stop-color:#ffcc00;stop-opacity:1;"
         offset="0"
         id="stop10171" />
      <stop
         style="stop-color:#ffcc00;stop-opacity:0;"
         offset="1"
         id="stop10173" />
    </linearGradient>
    <radialGradient
       inkscape:collect="always"
       xlink:href="#linearGradient10169"
       id="radialGradient10179"
       cx="201.25374"
       cy="927.40839"
       fx="201.25374"
       fy="927.40839"
       r="68.973679"
       gradientTransform="matrix(0.97704163,0.78242437,-0.76339479,0.95327867,653.83953,-895.94043)"
       gradientUnits="userSpaceOnUse" />
    <filter
       inkscape:collect="always"
       style="color-interpolation-filters:sRGB"
       id="filter10325"
       x="-0.039875211"
       width="1.0797504"
       y="-0.044363978"
       height="1.088728">
      <feGaussianBlur
         inkscape:collect="always"
         stdDeviation="2.0575366"
         id="feGaussianBlur10327" />
    </filter>
    <filter
       inkscape:collect="always"
       style="color-interpolation-filters:sRGB"
       id="filter10707"
       x="-0.12041202"
       width="1.240824"
       y="-0.10609316"
       height="1.2121863">
      <feGaussianBlur
         inkscape:collect="always"
         stdDeviation="3.4943495"
         id="feGaussianBlur10709" />
    </filter>
    <linearGradient
       inkscape:collect="always"
       xlink:href="#linearGradient10711"
       id="linearGradient10717"
       x1="143.22363"
       y1="148.72525"
       x2="101.43008"
       y2="206.22525"
       gradientUnits="userSpaceOnUse" />
  </defs>
  <sodipodi:namedview
     id="base"
     pagecolor="#ffffff"
     bordercolor="#666666"
     borderopacity="1.0"
     inkscape:pageopacity="0.0"
     inkscape:pageshadow="2"
     inkscape:zoom="2.8"
     inkscape:cx="11.271439"
     inkscape:cy="185.67884"
     inkscape:document-units="px"
     inkscape:current-layer="layer1"
     showgrid="false"
     inkscape:window-width="1920"
     inkscape:window-height="1017"
     inkscape:window-x="-8"
     inkscape:window-y="-8"
     inkscape:window-maximized="1"
     units="px" />
  <metadata
     id="metadata5493">
    <rdf:RDF>
      <cc:Work
         rdf:about="">
        <dc:format>image/svg+xml</dc:format>
        <dc:type
           rdf:resource="http://purl.org/dc/dcmitype/StillImage" />
        <dc:title />
      </cc:Work>
    </rdf:RDF>
  </metadata>
  <g
     inkscape:groupmode="layer"
     id="layer6"
     inkscape:label="BoundingBox"
     style="display:none"
     sodipodi:insensitive="true">
    <rect
       transform="translate(0,-752.36216)"
       style="fill:none;fill-opacity:1;stroke:#000000;stroke-width:2;stroke-linecap:square;stroke-linejoin:round;stroke-miterlimit:4;stroke-dasharray:none;stroke-opacity:1"
       id="rect15670"
       width="100"
       height="100"
       x="101"
       y="851.36218" />
  </g>
  <g
     inkscape:groupmode="layer"
     id="layer9"
     inkscape:label="Shadow"
     style="opacity:0.505">
    <path
       style="display:inline;fill:url(#radialGradient10179);fill-opacity:1;fill-rule:evenodd;stroke:none;stroke-width:1px;stroke-linecap:butt;stroke-linejoin:miter;stroke-opacity:1;filter:url(#filter10325)"
       d="m 35.714286,155.71428 c 24.34562,16.02836 104.769004,100.64914 135.000004,96.78571 15.89798,-2.03171 104.85275,-144.72504 100,-159.999997 -6.95861,-21.90357 -81.68619,-71.08627 -104.64286,-70 -25.4802,1.20569 -42.77831,25.084636 -66.428567,34.642857 -21.21501,8.574019 -77.081557,89.91194 -63.928577,98.57143 z"
       id="path9695"
       inkscape:connector-curvature="0"
       sodipodi:nodetypes="ssssss" />
    <path
       style="fill:url(#linearGradient10717);fill-opacity:1;fill-rule:evenodd;stroke:none;stroke-width:1px;stroke-linecap:butt;stroke-linejoin:miter;stroke-opacity:1;filter:url(#filter10707)"
       d="m 141.78572,147.14286 c -12.14168,16.45151 -56.129145,26.35817 -69.285719,38.92857 -9.599194,9.17152 46.258329,47.71746 54.285699,37.14285 5.80623,-7.64865 8.95285,-51.84149 21.07144,-74.64286 1.28625,-2.4201 -4.44396,-3.63371 -6.07142,-1.42856 z"
       id="path9731"
       inkscape:connector-curvature="0"
       sodipodi:nodetypes="sssss" />
  </g>
  <g
     inkscape:label="Creature"
     inkscape:groupmode="layer"
     id="layer1"
     transform="translate(0,-752.36216)"
     style="display:inline">
    <path
       style="display:inline;fill:#ff0000;fill-rule:evenodd;stroke:#ff0000;stroke-width:2.77346969px;stroke-linecap:butt;stroke-linejoin:miter;stroke-opacity:1"
       d="m 115.67537,857.57932 c -6.57834,15.73608 -4.63931,30.93013 17.06048,37.52147 9.96846,3.02795 19.40974,4.40668 30.35361,2.49614 12.4794,-4.58101 21.56625,-14.72262 25.3239,-28.5441 -6.17071,4.1381 -5.36402,2.45491 -10.41707,2.5648 l 3.42288,-12.10977 c 3.35038,-11.85332 4.3821,-26.36675 -2.33084,-34.30722 -1.78823,9.83939 -5.34713,18.57412 -9.15907,22.33997 -10.78845,-36.53057 -7.59997,-52.20881 -5.83029,-55.91446 -19.87694,5.65746 -31.05357,19.59722 -27.29173,51.12195 l -9.45035,-21.17336 c -4.29557,12.8537 -11.30257,32.61125 -3.70307,44.31998 -5.82559,0.15427 -6.11037,-3.2756 -7.97846,-8.3154 z"
       id="path15704-1"
       inkscape:connector-curvature="0"
       sodipodi:nodetypes="cscccsccccccc" />
    <path
       style="display:inline;fill:#ff6600;fill-rule:evenodd;stroke:#ff6600;stroke-width:2.77346969px;stroke-linecap:butt;stroke-linejoin:miter;stroke-opacity:1"
       d="m 140.50761,896.73478 c -15.32096,-7.09656 -12.69912,-34.89382 -11.63183,-53.58839 3.33075,5.70956 4.68413,13.58047 14.83228,11.83805 -1.88648,-42.60449 6.87331,-47.50782 11.40339,-50.64188 -2.12292,23.67305 2.59125,37.05222 11.23829,51.16268 7.34592,-2.13042 8.00698,-3.73642 12.54557,-12.52482 0.46912,20.827 -12.58173,54.20965 -21.97741,55.12455 -8.16537,0.79508 -13.68361,-0.10724 -16.41029,-1.37019 z"
       id="path15706-1"
       inkscape:connector-curvature="0"
       sodipodi:nodetypes="scccccss" />
    <path
       style="display:inline;fill:#ffcc00;fill-rule:evenodd;stroke:#ffcc00;stroke-width:2.77346969px;stroke-linecap:butt;stroke-linejoin:miter;stroke-opacity:1"
       d="m 134.11359,862.52128 c 3.28902,2.7961 9.37389,8.13059 12.66295,10.9267 4.14006,-7.00801 3.36804,-17.45939 4.60858,-26.49997 0,0 9.81516,16.78088 10.6758,25.25412 0.91555,9.01401 -3.75633,24.82496 -8.38075,25.99452 -1.45667,0.36842 -7.35014,0.16664 -10.33238,-0.64119 -4.31222,-1.16809 -9.34544,-19.14531 -9.2342,-35.03418 z"
       id="path15708-4"
       inkscape:connector-curvature="0"
       sodipodi:nodetypes="cccsssc" />
    <path
       style="fill:#550000;fill-rule:evenodd;stroke:#000000;stroke-width:1px;stroke-linecap:butt;stroke-linejoin:miter;stroke-opacity:1"
       d="m 128.34953,836.66768 c 1.54127,3.99009 3.00625,10.64802 4.27117,14.33616 l 19.34359,1.53689 6.60714,-16.51786 -13.03571,-15.35714 z"
       id="path15674"
       inkscape:connector-curvature="0"
       sodipodi:nodetypes="cccccc" />
    <path
       style="fill:#aa0000;fill-rule:evenodd;stroke:#000000;stroke-width:1.67612088;stroke-linecap:butt;stroke-linejoin:miter;stroke-miterlimit:4;stroke-dasharray:none;stroke-opacity:1"
       d="m 116.85154,791.72849 c -1.81076,1.45132 -4.33663,6.87012 -2.73233,15.64486 0.0943,0.51581 0.26131,0.92731 0.64709,1.29197 1.89366,1.78999 2.80932,4.90516 4.1695,6.99364 0.32682,0.50181 -0.0581,0.8399 0.28024,1.37384 2.53747,4.00486 5.25211,8.90664 7.39534,14.93719 0.37368,1.05145 -0.0877,4.36555 2.17274,5.37367 5.36906,2.39447 12.34333,-3.47858 15.78955,-2.74349 11.7781,2.51232 9.47109,7.67467 4.10456,16.57491 -1.42144,2.35742 -5.24663,-1.48029 -15.88015,-0.35727 -1.44837,0.15296 1.02342,5.6743 1.32739,6.7777 4.85882,17.63743 9.46374,33.52394 8.99043,38.576 -1.25116,13.35476 17.73101,-11.24103 15.54785,-32.6893 -2.18317,-21.44827 7.02535,-67.20577 -3.03571,-75.73819 -10.06107,-8.53242 -31.47913,-1.86434 -38.7765,3.98447 z"
       id="path6036"
       inkscape:connector-curvature="0"
       sodipodi:nodetypes="sssssssssssszzs" />
    <path
       style="fill:#165016;fill-rule:evenodd;stroke:#000000;stroke-width:1.67612088;stroke-linecap:butt;stroke-linejoin:miter;stroke-miterlimit:4;stroke-dasharray:none;stroke-opacity:1"
       d="m 143.8837,783.76621 c -3.58592,2.07223 -11.87104,4.60609 -14.25368,10.64229 -3.07784,-3.56076 -4.59672,-3.8272 -11.08354,-3.76034 3.74847,-2.85517 4.40937,-4.75846 9.01744,-3.55357 3.52724,-3.92139 11.43809,-3.72415 16.31978,-3.32838 z"
       id="path6044"
       inkscape:connector-curvature="0"
       sodipodi:nodetypes="ccccc" />
    <path
       style="fill:#165016;fill-rule:evenodd;stroke:#000000;stroke-width:1.67612088;stroke-linecap:butt;stroke-linejoin:miter;stroke-miterlimit:4;stroke-dasharray:none;stroke-opacity:1"
       d="m 127.64366,787.19459 c -0.7397,-5.02211 -0.96235,-10.21587 -6.14236,-13.76392 l -2.11143,1.33816 c 6.75734,3.64984 6.45287,7.78868 8.25379,12.42576 z"
       id="path6046"
       inkscape:connector-curvature="0"
       sodipodi:nodetypes="cccc" />
    <path
       style="fill:none;fill-rule:evenodd;stroke:#000000;stroke-width:1px;stroke-linecap:butt;stroke-linejoin:miter;stroke-opacity:1"
       d="m 141.13352,811.88446 14.89327,-13.18302"
       id="path15676"
       inkscape:connector-curvature="0"
       sodipodi:nodetypes="cc" />
    <path
       style="fill:#800000;fill-rule:evenodd;stroke:#000000;stroke-width:1px;stroke-linecap:butt;stroke-linejoin:miter;stroke-opacity:1"
       d="m 138.92381,812.45267 c 0,0 12.73064,-0.056 14.32284,-1.15683 1.4668,-1.01414 -0.63135,-9.34391 -0.63135,-9.34391 z"
       id="path15680"
       inkscape:connector-curvature="0"
       sodipodi:nodetypes="cscc" />
    <path
       style="fill:#800000;fill-opacity:1;fill-rule:evenodd;stroke:#000000;stroke-width:1px;stroke-linecap:butt;stroke-linejoin:miter;stroke-opacity:1"
       d="m 125.50749,814.1136 c 0,0 -5.16651,1.93284 -6.59597,1.26804 -0.71486,-0.33246 -3.70039,-6.98906 -3.9825,-7.00159 z"
       id="path15682"
       inkscape:connector-curvature="0"
       sodipodi:nodetypes="cscc" />
  </g>
  <g
     inkscape:groupmode="layer"
     id="layer7"
     inkscape:label="Eye"
     style="display:inline">
    <g
       transform="translate(-13.928571,-795.57645)"
       style="display:inline"
       id="g15839">
      <g
         transform="matrix(0.41136752,0,0,0.28389146,115.75453,608.95972)"
         id="g15731">
        <path
           id="path15704"
           transform="matrix(2.4309163,0,0,3.522473,-281.38957,505.13122)"
           d="m 162.74219,95.71875 -3.44727,2.644531 c 0.0269,0.06638 0.037,0.123585 0.0664,0.191407 l -0.13672,-0.136719 -2.02539,1.550781 c 0.13289,0.42946 0.36522,0.81857 0.77344,1.11523 -0.84453,0.11556 -0.98481,-0.20541 -1.36719,-0.6582 l -0.0352,0.0273 c -0.37447,1.10794 -0.17393,2.1118 0.99024,2.74219 3.24659,-0.10284 7.14849,-0.30573 8.89648,-0.77539 0.66191,-0.60502 1.08836,-1.33638 1.21485,-2.16211 -0.81566,0.51953 -0.73824,0.3376 -1.48633,0.4375 l 0.21289,-1.261716 c 0.20795,-1.235845 0.006,-2.695109 -1.18555,-3.365235 -0.0251,1.008383 -0.34016,1.937881 -0.81445,2.378907 -0.79482,-1.09432 -1.30506,-1.984358 -1.65625,-2.728516 z"
           style="fill:#ff0000;fill-rule:evenodd;stroke:#ff0000;stroke-width:0.34173635px;stroke-linecap:butt;stroke-linejoin:miter;stroke-opacity:1"
           inkscape:connector-curvature="0" />
        <path
           id="path15706"
           transform="matrix(2.4309163,0,0,3.522473,-281.38957,505.13122)"
           d="m 161.68945,96.527344 -1.48242,1.136718 c 0.0919,0.560886 0.22905,1.19252 0.47852,1.984376 -1.23406,0.296239 -1.7111,-0.192377 -2.20899,-0.658204 l -0.21484,0.166016 c 0.20881,1.34872 0.47596,2.99825 1.49219,3.96289 1.83292,-0.087 3.63468,-0.21893 5.05468,-0.4082 0.77375,-1.25604 1.21837,-3.424355 0.81055,-4.875002 -0.45944,0.952478 -0.51728,1.123949 -1.55664,1.464843 -1.06607,-0.816737 -1.86761,-1.638905 -2.37305,-2.773437 z"
           style="fill:#ff6600;fill-rule:evenodd;stroke:#ff6600;stroke-width:0.34173635px;stroke-linecap:butt;stroke-linejoin:miter;stroke-opacity:1"
           inkscape:connector-curvature="0" />
        <path
           id="path15708"
           transform="matrix(2.4309163,0,0,3.522473,-281.38957,505.13122)"
           d="m 161.62891,98.714844 c 0.0368,0.919428 0.40665,1.944196 -0.0371,2.712886 -0.55706,-0.21967 -1.59138,-0.64165 -2.14844,-0.86132 0.21516,0.91352 0.70434,1.8553 1.20703,2.5039 1.13144,-0.0625 2.2258,-0.14096 3.20899,-0.24219 0.15823,-0.58359 0.17266,-1.30466 -0.0254,-1.79296 -0.33507,-0.8261 -2.20507,-2.320316 -2.20507,-2.320316 z"
           style="fill:#ffcc00;fill-rule:evenodd;stroke:#ffcc00;stroke-width:0.34173635px;stroke-linecap:butt;stroke-linejoin:miter;stroke-opacity:1"
           inkscape:connector-curvature="0" />
      </g>
      <path
         sodipodi:nodetypes="cscc"
         inkscape:connector-curvature="0"
         id="path15680-8"
         d="m 152.85238,855.66696 c 0,0 12.73064,-0.056 14.32284,-1.15683 1.4668,-1.01414 -0.63135,-9.34391 -0.63135,-9.34391 z"
         style="display:inline;fill:none;fill-rule:evenodd;stroke:#000000;stroke-width:1px;stroke-linecap:butt;stroke-linejoin:miter;stroke-opacity:1" />
    </g>
    <g
       transform="translate(-13.928571,-795.57645)"
       style="display:inline"
       id="g15852">
      <path
         id="path15704-1-9"
         transform="translate(0,752.36216)"
         d="m 129.88281,100.83203 c -0.0298,0.0141 -0.0517,0.0338 -0.0801,0.0488 0.0347,0.0677 0.0754,0.14644 0.11133,0.2168 -0.0104,-0.089 -0.0285,-0.17428 -0.0312,-0.26563 z m 1.9668,0.0215 c -0.28764,0.46475 -0.68202,1.0065 -1.22461,1.63671 0.89062,1.74901 1.84798,3.57353 2.21484,3.74415 0.72303,0.33625 2.39588,0.008 3.87891,-0.39844 0.79092,-0.46432 0.89063,-1.14786 0.57813,-1.88867 -0.34433,0.33619 -0.45299,0.57698 -1.19336,0.49218 0.38844,-0.2363 0.59104,-0.55489 0.69531,-0.90429 l -1.8125,-0.98047 -0.0762,0.0645 c 0.0162,-0.0312 0.0218,-0.0571 0.0371,-0.0879 l -3.09766,-1.67773 z"
         style="display:inline;fill:#ff0000;fill-rule:evenodd;stroke:#ff0000;stroke-width:0.26861286px;stroke-linecap:butt;stroke-linejoin:miter;stroke-opacity:1"
         inkscape:connector-curvature="0" />
      <path
         id="path15706-1-6"
         transform="translate(0,752.36216)"
         d="m 132.79688,101.36719 c -0.42294,0.68888 -1.05135,1.2146 -1.84961,1.73437 0.78602,1.52481 1.5717,2.98358 1.89257,3.13282 0.17503,0.0814 0.40699,0.12293 0.67774,0.13476 1.7682,-0.39368 2.10534,-2.06216 2.3418,-3.3418 l -0.1836,-0.0996 c -0.42997,0.3364 -0.83716,0.69257 -1.90234,0.47852 0.19229,-0.51094 0.30484,-0.92488 0.38672,-1.30078 l -1.36328,-0.73828 z"
         style="display:inline;fill:#ff6600;fill-rule:evenodd;stroke:#ff6600;stroke-width:0.26861286px;stroke-linecap:butt;stroke-linejoin:miter;stroke-opacity:1"
         inkscape:connector-curvature="0" />
      <path
         id="path15708-4-4"
         transform="translate(0,752.36216)"
         d="m 132.96094,102.73438 c 0,0 -0.98724,0.66685 -1.55078,1.24023 0.60872,1.14291 1.17411,2.14091 1.42968,2.25977 0.10985,0.0511 0.24849,0.0811 0.39844,0.10351 0.57728,-0.32062 1.33403,-1.32061 1.60156,-2.27148 -0.47857,0.15798 -1.36713,0.46116 -1.8457,0.61914 -0.38124,-0.55281 -0.0649,-1.28995 -0.0332,-1.95117 z"
         style="display:inline;fill:#ffcc00;fill-rule:evenodd;stroke:#ffcc00;stroke-width:0.26861286px;stroke-linecap:butt;stroke-linejoin:miter;stroke-opacity:1"
         inkscape:connector-curvature="0" />
      <path
         sodipodi:nodetypes="cscc"
         inkscape:connector-curvature="0"
         id="path15682-2"
         d="m 139.43606,857.32789 c 0,0 -5.16651,1.93284 -6.59597,1.26804 -0.71486,-0.33246 -3.70039,-6.98906 -3.9825,-7.00159 z"
         style="display:inline;fill:none;fill-rule:evenodd;stroke:#000000;stroke-width:1px;stroke-linecap:butt;stroke-linejoin:miter;stroke-opacity:1" />
    </g>
  </g>
</svg>
