<?xml version="1.0" encoding="UTF-8" standalone="no"?>
<!-- Created with Inkscape (http://www.inkscape.org/) -->

<svg
   xmlns:dc="http://purl.org/dc/elements/1.1/"
   xmlns:cc="http://creativecommons.org/ns#"
   xmlns:rdf="http://www.w3.org/1999/02/22-rdf-syntax-ns#"
   xmlns:svg="http://www.w3.org/2000/svg"
   xmlns="http://www.w3.org/2000/svg"
   xmlns:sodipodi="http://sodipodi.sourceforge.net/DTD/sodipodi-0.dtd"
   xmlns:inkscape="http://www.inkscape.org/namespaces/inkscape"
   width="300"
   height="300"
   viewBox="0 0 300 300"
   id="svg5488"
   version="1.1"
   inkscape:version="0.91 r13725"
   sodipodi:docname="Pepper.svg">
  <defs
     id="defs5490" />
  <sodipodi:namedview
     id="base"
     pagecolor="#ffffff"
     bordercolor="#666666"
     borderopacity="1.0"
     inkscape:pageopacity="0.0"
     inkscape:pageshadow="2"
     inkscape:zoom="2.8"
     inkscape:cx="129.39455"
     inkscape:cy="170.71468"
     inkscape:document-units="px"
     inkscape:current-layer="layer1"
     showgrid="false"
     inkscape:window-width="1920"
     inkscape:window-height="1017"
     inkscape:window-x="3832"
     inkscape:window-y="-8"
     inkscape:window-maximized="1"
     units="px" />
  <metadata
     id="metadata5493">
    <rdf:RDF>
      <cc:Work
         rdf:about="">
        <dc:format>image/svg+xml</dc:format>
        <dc:type
           rdf:resource="http://purl.org/dc/dcmitype/StillImage" />
        <dc:title></dc:title>
      </cc:Work>
    </rdf:RDF>
  </metadata>
  <g
     inkscape:groupmode="layer"
     id="layer6"
     inkscape:label="BoundingBox"
     style="display:none">
    <rect
       transform="translate(0,-752.36216)"
       style="fill:none;fill-opacity:1;stroke:#000000;stroke-width:2;stroke-linecap:square;stroke-linejoin:round;stroke-miterlimit:4;stroke-dasharray:none;stroke-opacity:1"
       id="rect15670"
       width="100"
       height="100"
       x="101"
       y="851.36218" />
  </g>
  <g
     inkscape:label="Layer 1"
     inkscape:groupmode="layer"
     id="layer1"
     transform="translate(0,-752.36216)"
     style="display:inline">
    <path
       style="display:inline;fill:#ff0000;fill-rule:evenodd;stroke:#ff0000;stroke-width:3.67386746px;stroke-linecap:butt;stroke-linejoin:miter;stroke-opacity:1"
       d="m 109.61575,869.00277 c -5.30644,21.6608 0.60019,40.69077 30.91355,44.20445 13.92537,1.61414 26.78824,1.23469 40.92998,-3.70145 15.59995,-8.70734 25.46877,-23.76922 27.4417,-42.33529 -7.30363,6.70564 -6.59893,4.36529 -13.29762,5.65481 l 1.90234,-16.29648 c 1.86205,-15.95132 0.0568,-34.78444 -10.61294,-43.4339 -0.22468,13.01541 -3.047,25.01776 -7.29394,30.71017 -22.35208,-44.36043 -21.54296,-65.17651 -19.9999,-70.32748 -25.20617,11.76842 -37.02366,32.17259 -25.1161,71.71553 l -17.20919,-24.98478 c -2.90051,17.44816 -7.89672,44.35981 4.77766,57.63666 -7.71678,1.52201 -8.84667,-2.80855 -12.43554,-8.84224 z"
       id="path15704-1"
       inkscape:connector-curvature="0"
       sodipodi:nodetypes="cscccsccccccc" />
    <path
       style="display:inline;fill:#ff6600;fill-rule:evenodd;stroke:#ff6600;stroke-width:3.67386746px;stroke-linecap:butt;stroke-linejoin:miter;stroke-opacity:1"
       d="m 151.22688,913.53441 c -21.93737,-5.61118 -24.5357,-41.82866 -27.20911,-66.02785 5.68149,6.55948 9.2055,16.33817 22.3254,11.79836 -11.83855,-54.16765 -1.25788,-62.44247 4.08285,-67.4885 2.35906,30.81898 11.56047,46.89237 26.15441,63.00884 9.30678,-4.39999 9.83462,-6.60831 13.94859,-18.90216 5.18443,26.58261 -4.86935,72.32837 -17.16934,75.63668 -10.68938,2.87508 -18.2286,2.97321 -22.1328,1.97463 z"
       id="path15706-1"
       inkscape:connector-curvature="0"
       sodipodi:nodetypes="scccccss" />
    <path
       style="display:inline;fill:#ffcc00;fill-rule:evenodd;stroke:#ffcc00;stroke-width:3.67386746px;stroke-linecap:butt;stroke-linejoin:miter;stroke-opacity:1"
       d="m 135.22865,871.14427 c 4.98806,2.83543 14.25162,8.2882 19.23972,11.12363 3.9736,-9.92172 0.65803,-23.13938 0.32895,-35.00664 0,0 16.73277,19.27299 19.73309,29.93558 3.1918,11.34307 0.43816,32.66643 -5.45823,35.21644 -1.85733,0.80325 -9.74238,1.88442 -13.88692,1.52716 -5.99288,-0.51659 -16.62557,-22.40973 -19.95661,-42.79617 z"
       id="path15708-4"
       inkscape:connector-curvature="0"
       sodipodi:nodetypes="cccsssc" />
    <path
       style="fill:#550000;fill-rule:evenodd;stroke:#000000;stroke-width:1px;stroke-linecap:butt;stroke-linejoin:miter;stroke-opacity:1"
       d="m 142.2781,879.88197 c 1.54127,3.99009 3.00625,10.64802 4.27117,14.33616 l 19.34359,1.53689 6.60714,-16.51786 -13.03571,-15.35714 z"
       id="path15674"
       inkscape:connector-curvature="0"
       sodipodi:nodetypes="cccccc" />
    <path
       style="fill:#aa0000;fill-rule:evenodd;stroke:#000000;stroke-width:1.67612088;stroke-linecap:butt;stroke-linejoin:miter;stroke-miterlimit:4;stroke-dasharray:none;stroke-opacity:1"
       d="m 130.78011,834.94278 c -1.81076,1.45132 -4.33663,6.87012 -2.73233,15.64486 0.0943,0.51581 0.26131,0.92731 0.64709,1.29197 1.89366,1.78999 2.80932,4.90516 4.1695,6.99364 0.32682,0.50181 -0.0581,0.8399 0.28024,1.37384 2.53747,4.00486 5.25211,8.90664 7.39534,14.93719 0.37368,1.05145 -0.0877,4.36555 2.17274,5.37367 5.36906,2.39447 12.34333,-3.47858 15.78955,-2.74349 11.7781,2.51232 9.47109,7.67467 4.10456,16.57491 -1.42144,2.35742 -5.24663,-1.48029 -15.88015,-0.35727 -1.44837,0.15296 1.02342,5.6743 1.32739,6.7777 4.85882,17.63743 9.46374,33.52394 8.99043,38.576 -1.25116,13.35476 17.73101,-11.24103 15.54785,-32.6893 -2.18317,-21.44827 7.02535,-67.20577 -3.03571,-75.73819 -10.06107,-8.53242 -31.47913,-1.86434 -38.7765,3.98447 z"
       id="path6036"
       inkscape:connector-curvature="0"
       sodipodi:nodetypes="sssssssssssszzs" />
    <path
       style="fill:#165016;fill-rule:evenodd;stroke:#000000;stroke-width:1.67612088;stroke-linecap:butt;stroke-linejoin:miter;stroke-miterlimit:4;stroke-dasharray:none;stroke-opacity:1"
       d="m 157.81227,826.9805 c -3.58592,2.07223 -11.87104,4.60609 -14.25368,10.64229 -3.07784,-3.56076 -4.59672,-3.8272 -11.08354,-3.76034 3.74847,-2.85517 4.40937,-4.75846 9.01744,-3.55357 3.52724,-3.92139 11.43809,-3.72415 16.31978,-3.32838 z"
       id="path6044"
       inkscape:connector-curvature="0"
       sodipodi:nodetypes="ccccc" />
    <path
       style="fill:#165016;fill-rule:evenodd;stroke:#000000;stroke-width:1.67612088;stroke-linecap:butt;stroke-linejoin:miter;stroke-miterlimit:4;stroke-dasharray:none;stroke-opacity:1"
       d="m 141.57223,830.40888 c -0.7397,-5.02211 -0.96235,-10.21587 -6.14236,-13.76392 l -2.11143,1.33816 c 6.75734,3.64984 6.45287,7.78868 8.25379,12.42576 z"
       id="path6046"
       inkscape:connector-curvature="0"
       sodipodi:nodetypes="cccc" />
    <path
       style="fill:none;fill-rule:evenodd;stroke:#000000;stroke-width:1px;stroke-linecap:butt;stroke-linejoin:miter;stroke-opacity:1"
       d="m 155.06209,855.09875 14.89327,-13.18302"
       id="path15676"
       inkscape:connector-curvature="0"
       sodipodi:nodetypes="cc" />
    <path
       style="fill:#800000;fill-rule:evenodd;stroke:#000000;stroke-width:1px;stroke-linecap:butt;stroke-linejoin:miter;stroke-opacity:1"
       d="m 152.85238,855.66696 c 0,0 12.73064,-0.056 14.32284,-1.15683 1.4668,-1.01414 -0.63135,-9.34391 -0.63135,-9.34391 z"
       id="path15680"
       inkscape:connector-curvature="0"
       sodipodi:nodetypes="cscc" />
    <path
       style="fill:#800000;fill-rule:evenodd;stroke:#000000;stroke-width:1px;stroke-linecap:butt;stroke-linejoin:miter;stroke-opacity:1;fill-opacity:1"
       d="m 139.43606,857.32789 c 0,0 -5.16651,1.93284 -6.59597,1.26804 -0.71486,-0.33246 -3.70039,-6.98906 -3.9825,-7.00159 z"
       id="path15682"
       inkscape:connector-curvature="0"
       sodipodi:nodetypes="cscc" />
  </g>
  <g
     inkscape:groupmode="layer"
     id="layer7"
     inkscape:label="Eye"
     style="display:inline">
    <g
       transform="translate(0,-752.36216)"
       style="display:inline"
       id="g15839">
      <g
         transform="matrix(0.41136752,0,0,0.28389146,115.75453,608.95972)"
         id="g15731">
        <path
           id="path15704"
           transform="matrix(2.4309163,0,0,3.522473,-281.38957,505.13122)"
           d="m 162.74219,95.71875 -3.44727,2.644531 c 0.0269,0.06638 0.037,0.123585 0.0664,0.191407 l -0.13672,-0.136719 -2.02539,1.550781 c 0.13289,0.42946 0.36522,0.81857 0.77344,1.11523 -0.84453,0.11556 -0.98481,-0.20541 -1.36719,-0.6582 l -0.0352,0.0273 c -0.37447,1.10794 -0.17393,2.1118 0.99024,2.74219 3.24659,-0.10284 7.14849,-0.30573 8.89648,-0.77539 0.66191,-0.60502 1.08836,-1.33638 1.21485,-2.16211 -0.81566,0.51953 -0.73824,0.3376 -1.48633,0.4375 l 0.21289,-1.261716 c 0.20795,-1.235845 0.006,-2.695109 -1.18555,-3.365235 -0.0251,1.008383 -0.34016,1.937881 -0.81445,2.378907 -0.79482,-1.09432 -1.30506,-1.984358 -1.65625,-2.728516 z"
           style="fill:#ff0000;fill-rule:evenodd;stroke:#ff0000;stroke-width:0.34173635px;stroke-linecap:butt;stroke-linejoin:miter;stroke-opacity:1"
           inkscape:connector-curvature="0" />
        <path
           id="path15706"
           transform="matrix(2.4309163,0,0,3.522473,-281.38957,505.13122)"
           d="m 161.68945,96.527344 -1.48242,1.136718 c 0.0919,0.560886 0.22905,1.19252 0.47852,1.984376 -1.23406,0.296239 -1.7111,-0.192377 -2.20899,-0.658204 l -0.21484,0.166016 c 0.20881,1.34872 0.47596,2.99825 1.49219,3.96289 1.83292,-0.087 3.63468,-0.21893 5.05468,-0.4082 0.77375,-1.25604 1.21837,-3.424355 0.81055,-4.875002 -0.45944,0.952478 -0.51728,1.123949 -1.55664,1.464843 -1.06607,-0.816737 -1.86761,-1.638905 -2.37305,-2.773437 z"
           style="fill:#ff6600;fill-rule:evenodd;stroke:#ff6600;stroke-width:0.34173635px;stroke-linecap:butt;stroke-linejoin:miter;stroke-opacity:1"
           inkscape:connector-curvature="0" />
        <path
           id="path15708"
           transform="matrix(2.4309163,0,0,3.522473,-281.38957,505.13122)"
           d="m 161.62891,98.714844 c 0.0368,0.919428 0.40665,1.944196 -0.0371,2.712886 -0.55706,-0.21967 -1.59138,-0.64165 -2.14844,-0.86132 0.21516,0.91352 0.70434,1.8553 1.20703,2.5039 1.13144,-0.0625 2.2258,-0.14096 3.20899,-0.24219 0.15823,-0.58359 0.17266,-1.30466 -0.0254,-1.79296 -0.33507,-0.8261 -2.20507,-2.320316 -2.20507,-2.320316 z"
           style="fill:#ffcc00;fill-rule:evenodd;stroke:#ffcc00;stroke-width:0.34173635px;stroke-linecap:butt;stroke-linejoin:miter;stroke-opacity:1"
           inkscape:connector-curvature="0" />
      </g>
      <path
         sodipodi:nodetypes="cscc"
         inkscape:connector-curvature="0"
         id="path15680-8"
         d="m 152.85238,855.66696 c 0,0 12.73064,-0.056 14.32284,-1.15683 1.4668,-1.01414 -0.63135,-9.34391 -0.63135,-9.34391 z"
         style="display:inline;fill:none;fill-rule:evenodd;stroke:#000000;stroke-width:1px;stroke-linecap:butt;stroke-linejoin:miter;stroke-opacity:1" />
    </g>
    <g
       transform="translate(0,-752.36216)"
       style="display:inline"
       id="g15852">
      <path
         id="path15704-1-9"
         transform="translate(0,752.36216)"
         d="m 129.88281,100.83203 c -0.0298,0.0141 -0.0517,0.0338 -0.0801,0.0488 0.0347,0.0677 0.0754,0.14644 0.11133,0.2168 -0.0104,-0.089 -0.0285,-0.17428 -0.0312,-0.26563 z m 1.9668,0.0215 c -0.28764,0.46475 -0.68202,1.0065 -1.22461,1.63671 0.89062,1.74901 1.84798,3.57353 2.21484,3.74415 0.72303,0.33625 2.39588,0.008 3.87891,-0.39844 0.79092,-0.46432 0.89063,-1.14786 0.57813,-1.88867 -0.34433,0.33619 -0.45299,0.57698 -1.19336,0.49218 0.38844,-0.2363 0.59104,-0.55489 0.69531,-0.90429 l -1.8125,-0.98047 -0.0762,0.0645 c 0.0162,-0.0312 0.0218,-0.0571 0.0371,-0.0879 l -3.09766,-1.67773 z"
         style="display:inline;fill:#ff0000;fill-rule:evenodd;stroke:#ff0000;stroke-width:0.26861286px;stroke-linecap:butt;stroke-linejoin:miter;stroke-opacity:1"
         inkscape:connector-curvature="0" />
      <path
         id="path15706-1-6"
         transform="translate(0,752.36216)"
         d="m 132.79688,101.36719 c -0.42294,0.68888 -1.05135,1.2146 -1.84961,1.73437 0.78602,1.52481 1.5717,2.98358 1.89257,3.13282 0.17503,0.0814 0.40699,0.12293 0.67774,0.13476 1.7682,-0.39368 2.10534,-2.06216 2.3418,-3.3418 l -0.1836,-0.0996 c -0.42997,0.3364 -0.83716,0.69257 -1.90234,0.47852 0.19229,-0.51094 0.30484,-0.92488 0.38672,-1.30078 l -1.36328,-0.73828 z"
         style="display:inline;fill:#ff6600;fill-rule:evenodd;stroke:#ff6600;stroke-width:0.26861286px;stroke-linecap:butt;stroke-linejoin:miter;stroke-opacity:1"
         inkscape:connector-curvature="0" />
      <path
         id="path15708-4-4"
         transform="translate(0,752.36216)"
         d="m 132.96094,102.73438 c 0,0 -0.98724,0.66685 -1.55078,1.24023 0.60872,1.14291 1.17411,2.14091 1.42968,2.25977 0.10985,0.0511 0.24849,0.0811 0.39844,0.10351 0.57728,-0.32062 1.33403,-1.32061 1.60156,-2.27148 -0.47857,0.15798 -1.36713,0.46116 -1.8457,0.61914 -0.38124,-0.55281 -0.0649,-1.28995 -0.0332,-1.95117 z"
         style="display:inline;fill:#ffcc00;fill-rule:evenodd;stroke:#ffcc00;stroke-width:0.26861286px;stroke-linecap:butt;stroke-linejoin:miter;stroke-opacity:1"
         inkscape:connector-curvature="0" />
      <path
         sodipodi:nodetypes="cscc"
         inkscape:connector-curvature="0"
         id="path15682-2"
         d="m 139.43606,857.32789 c 0,0 -5.16651,1.93284 -6.59597,1.26804 -0.71486,-0.33246 -3.70039,-6.98906 -3.9825,-7.00159 z"
         style="display:inline;fill:none;fill-rule:evenodd;stroke:#000000;stroke-width:1px;stroke-linecap:butt;stroke-linejoin:miter;stroke-opacity:1" />
    </g>
  </g>
</svg>
