<?xml version="1.0" encoding="UTF-8" standalone="no"?>
<!-- Created with Inkscape (http://www.inkscape.org/) -->

<svg
   xmlns:dc="http://purl.org/dc/elements/1.1/"
   xmlns:cc="http://creativecommons.org/ns#"
   xmlns:rdf="http://www.w3.org/1999/02/22-rdf-syntax-ns#"
   xmlns:svg="http://www.w3.org/2000/svg"
   xmlns="http://www.w3.org/2000/svg"
   xmlns:sodipodi="http://sodipodi.sourceforge.net/DTD/sodipodi-0.dtd"
   xmlns:inkscape="http://www.inkscape.org/namespaces/inkscape"
   width="200"
   height="200"
   viewBox="0 0 200 199.99999"
   id="svg7702"
   version="1.1"
   inkscape:version="0.91 r13725"
   sodipodi:docname="Desert.svg"
   inkscape:export-filename="C:\Users\Shep\Documents\GitHub\VelocidataGamejam2015.github.io\Assets\Landscape\S_DesertTiled.png"
   inkscape:export-xdpi="90"
   inkscape:export-ydpi="90">
  <defs
     id="defs7704" />
  <sodipodi:namedview
     id="base"
     pagecolor="#ffffff"
     bordercolor="#666666"
     borderopacity="1.0"
     inkscape:pageopacity="0.0"
     inkscape:pageshadow="2"
     inkscape:zoom="8.2006469"
     inkscape:cx="141.95271"
     inkscape:cy="51.825181"
     inkscape:document-units="px"
     inkscape:current-layer="layer1"
     showgrid="false"
     units="px"
     inkscape:window-width="852"
     inkscape:window-height="403"
     inkscape:window-x="257"
     inkscape:window-y="226"
     inkscape:window-maximized="0" />
  <metadata
     id="metadata7707">
    <rdf:RDF>
      <cc:Work
         rdf:about="">
        <dc:format>image/svg+xml</dc:format>
        <dc:type
           rdf:resource="http://purl.org/dc/dcmitype/StillImage" />
        <dc:title></dc:title>
      </cc:Work>
    </rdf:RDF>
  </metadata>
  <g
     inkscape:label="Layer 1"
     inkscape:groupmode="layer"
     id="layer1"
     transform="translate(0,-852.36225)">
    <rect
       style="fill:#d38d5f;fill-opacity:1;stroke:#800000;stroke-width:0;stroke-linejoin:miter;stroke-miterlimit:4;stroke-dasharray:none;stroke-opacity:1"
       id="rect8253"
       width="100"
       height="99.999992"
       x="100.00001"
       y="952.36224" />
    <path
       style="fill:#c87137;fill-rule:evenodd;stroke:#c87137;stroke-width:1px;stroke-linecap:butt;stroke-linejoin:miter;stroke-opacity:1"
       d="m 140.26785,997.27297 c 12.30545,-9.43139 29.91038,-9.51287 38.21428,1.60714 5.88061,7.87489 2.61235,7.69029 0.214,4.45799 -8.274,-11.15093 -30.05165,-8.99125 -34.10714,-3.48219 z"
       id="path8257"
       inkscape:connector-curvature="0"
       sodipodi:nodetypes="csscc" />
    <path
       style="fill:#c87137;fill-rule:evenodd;stroke:#c87137;stroke-width:1px;stroke-linecap:butt;stroke-linejoin:miter;stroke-opacity:1"
       d="m 112.85714,998.96941 c 12.21543,-10.45124 25.71035,-6.22433 38.57143,2.85709 5.5695,3.9327 7.24198,9.028 1.19614,4.458 -12.55978,-9.49383 -25.1652,-11.72949 -38.57143,-2.8571 -5.43357,3.596 -6.9438,0.4596 -1.19614,-4.45799 z"
       id="path8255"
       inkscape:connector-curvature="0"
       sodipodi:nodetypes="sssss" />
    <path
       style="fill:#c87137;fill-rule:evenodd;stroke:#c87137;stroke-width:1px;stroke-linecap:butt;stroke-linejoin:miter;stroke-opacity:1"
       d="m 148.24768,1032.2954 c 12.21543,-10.4512 25.71035,-6.2243 38.57143,2.8571 5.5695,3.9327 7.24198,9.028 1.19614,4.458 -12.55978,-9.4938 -25.1652,-11.7295 -38.57143,-2.8571 -5.43357,3.596 -6.9438,0.4596 -1.19614,-4.458 z"
       id="path8255-2"
       inkscape:connector-curvature="0"
       sodipodi:nodetypes="sssss" />
    <path
       style="fill:#c87137;fill-rule:evenodd;stroke:#c87137;stroke-width:1px;stroke-linecap:butt;stroke-linejoin:miter;stroke-opacity:1"
       d="m 88.069113,1031.0454 c 12.215427,-10.4512 25.710347,-6.2243 38.571427,2.8571 5.5695,3.9327 7.24198,9.028 1.19614,4.458 -12.55978,-9.4938 -25.1652,-11.7295 -38.571427,-2.8571 -5.43357,3.596 -6.9438,0.4596 -1.19614,-4.458 z"
       id="path8255-6"
       inkscape:connector-curvature="0"
       sodipodi:nodetypes="sssss" />
    <path
       style="fill:#c87137;fill-rule:evenodd;stroke:#c87137;stroke-width:1px;stroke-linecap:butt;stroke-linejoin:miter;stroke-opacity:1"
       d="m 150.74768,980.86689 c 12.21543,-10.45124 25.71035,-6.22433 38.57143,2.8571 5.5695,3.9327 7.24198,9.028 1.19614,4.458 -12.55978,-9.49384 -25.1652,-11.7295 -38.57143,-2.8571 -5.43357,3.596 -6.9438,0.4596 -1.19614,-4.458 z"
       id="path8255-24"
       inkscape:connector-curvature="0"
       sodipodi:nodetypes="sssss" />
    <path
       style="fill:#c87137;fill-rule:evenodd;stroke:#c87137;stroke-width:1px;stroke-linecap:butt;stroke-linejoin:miter;stroke-opacity:1"
       d="m 121.91625,956.12574 c 12.30545,-9.43139 29.91038,-9.51287 38.21428,1.60714 5.88061,7.8749 2.61235,7.6903 0.214,4.458 -8.274,-11.15094 -30.05165,-8.99126 -34.10714,-3.4822 z"
       id="path8257-0"
       inkscape:connector-curvature="0"
       sodipodi:nodetypes="csscc" />
    <path
       style="fill:#c87137;fill-rule:evenodd;stroke:#c87137;stroke-width:1px;stroke-linecap:butt;stroke-linejoin:miter;stroke-opacity:1"
       d="m 94.505544,957.82218 c 12.215426,-10.45124 25.710346,-6.22433 38.571426,2.8571 5.5695,3.9327 7.24198,9.028 1.19614,4.458 -12.55978,-9.49384 -25.1652,-11.7295 -38.571426,-2.8571 -5.43357,3.596 -6.9438,0.4596 -1.19614,-4.458 z"
       id="path8255-20"
       inkscape:connector-curvature="0"
       sodipodi:nodetypes="sssss" />
  </g>
</svg>
