<?xml version="1.0" encoding="UTF-8" standalone="no"?>
<!-- Created with Inkscape (http://www.inkscape.org/) -->

<svg
   xmlns:dc="http://purl.org/dc/elements/1.1/"
   xmlns:cc="http://creativecommons.org/ns#"
   xmlns:rdf="http://www.w3.org/1999/02/22-rdf-syntax-ns#"
   xmlns:svg="http://www.w3.org/2000/svg"
   xmlns="http://www.w3.org/2000/svg"
   xmlns:sodipodi="http://sodipodi.sourceforge.net/DTD/sodipodi-0.dtd"
   xmlns:inkscape="http://www.inkscape.org/namespaces/inkscape"
   width="200"
   height="200"
   viewBox="0 0 200 200"
   id="svg10054"
   version="1.1"
   inkscape:version="0.91 r13725"
   sodipodi:docname="Mountains.svg">
  <defs
     id="defs10056" />
  <sodipodi:namedview
     id="base"
     pagecolor="#ffffff"
     bordercolor="#666666"
     borderopacity="1.0"
     inkscape:pageopacity="0.0"
     inkscape:pageshadow="2"
     inkscape:zoom="3.959798"
     inkscape:cx="138.70899"
     inkscape:cy="76.168101"
     inkscape:document-units="px"
     inkscape:current-layer="layer1"
     showgrid="false"
     units="px"
     showguides="false"
     inkscape:window-width="1920"
     inkscape:window-height="1017"
     inkscape:window-x="-8"
     inkscape:window-y="-8"
     inkscape:window-maximized="1" />
  <metadata
     id="metadata10059">
    <rdf:RDF>
      <cc:Work
         rdf:about="">
        <dc:format>image/svg+xml</dc:format>
        <dc:type
           rdf:resource="http://purl.org/dc/dcmitype/StillImage" />
        <dc:title></dc:title>
      </cc:Work>
    </rdf:RDF>
  </metadata>
  <g
     inkscape:label="Layer 1"
     inkscape:groupmode="layer"
     id="layer1"
     transform="translate(0,-852.36216)">
    <rect
       style="fill:#241c1c;fill-opacity:1;stroke:#000080;stroke-width:0;stroke-linecap:square;stroke-linejoin:round;stroke-miterlimit:4;stroke-dasharray:none;stroke-opacity:1"
       id="rect10602-4"
       width="100"
       height="100"
       x="100.00001"
       y="952.36218" />
    <path
       style="fill:#ac9d93;fill-rule:evenodd;stroke:#000000;stroke-width:1px;stroke-linecap:butt;stroke-linejoin:miter;stroke-opacity:1"
       d="m 164.46429,957.89789 -32.32144,-33.03572 -8.10532,6.68484 -7.11084,-0.13452 -31.625563,20.40834 14.713523,26.04249 z"
       id="path10606-5"
       inkscape:connector-curvature="0"
       sodipodi:nodetypes="ccccccc" />
    <path
       style="fill:#483e37;fill-rule:evenodd;stroke:#000000;stroke-width:1px;stroke-linecap:butt;stroke-linejoin:miter;stroke-opacity:1"
       d="m 199.46429,977.00499 -26.78572,-47.67854 -22.14285,23.39286 -49.46429,27.67859 74.99236,4.6 z"
       id="path10604-0"
       inkscape:connector-curvature="0"
       sodipodi:nodetypes="cccccc" />
    <path
       style="fill:#6c5d53;fill-rule:evenodd;stroke:#000000;stroke-width:1px;stroke-linecap:butt;stroke-linejoin:miter;stroke-opacity:1"
       d="M 179.10714,1000.755 111.25,958.9693 l -13.95052,18.47791 -12.817248,3.50585 7.645833,26.45664 66.237355,8.014 z"
       id="path10608-6"
       inkscape:connector-curvature="0"
       sodipodi:nodetypes="ccccccc" />
    <path
       style="fill:#ac9d93;fill-opacity:1;fill-rule:evenodd;stroke:#000000;stroke-width:1px;stroke-linecap:butt;stroke-linejoin:miter;stroke-opacity:1"
       d="m 117.5,1018.255 34.64286,-47.49998 11.78571,-5.71428 10.53571,6.24999 10,9.64286 9.82144,34.64281 -24.46429,23.2143 -35.89286,-3.9285 z"
       id="path10666-8"
       inkscape:connector-curvature="0"
       sodipodi:nodetypes="ccccccccc" />
    <path
       sodipodi:nodetypes="ccccccccc"
       style="fill:#6c5353;fill-rule:evenodd;stroke:#000000;stroke-width:1px;stroke-linecap:butt;stroke-linejoin:miter;stroke-opacity:1"
       d="m 83.607323,1012.3653 18.477477,-11.6663 14.72629,-19.05113 11.76034,4.46429 18.03571,13.75 19.28572,32.85714 -33.92857,13.3929 -41.071433,-6.6072 z"
       id="path10668-9"
       inkscape:connector-curvature="0" />
    <path
       style="fill:#6c5d53;fill-rule:evenodd;stroke:#000000;stroke-width:1px;stroke-linecap:butt;stroke-linejoin:miter;stroke-opacity:1"
       d="m 109.10715,1038.6122 34.46429,-37.3214 7.67857,-1.0715 11.60714,-12.14285 9.46429,13.92855 8.92857,2.3215 10.71429,38.0356 -32.32144,6.6072 -41.42857,-1.6071 z"
       id="path10670-9"
       inkscape:connector-curvature="0"
       sodipodi:nodetypes="cccccccccc" />
    <path
       style="fill:#ffffff;fill-rule:evenodd;stroke:#000000;stroke-width:1px;stroke-linecap:butt;stroke-linejoin:miter;stroke-opacity:1"
       d="M 132.14258 72.5 L 124.03711 79.185547 L 116.92578 79.050781 L 110.49023 83.203125 L 117.42969 87.367188 L 126.01562 91.408203 L 133.08789 86.611328 L 142.68359 86.357422 L 143.84961 84.464844 L 132.14258 72.5 z "
       transform="translate(0,852.36216)"
       id="path10868" />
    <path
       style="fill:#ffffff;fill-rule:evenodd;stroke:#000000;stroke-width:1px;stroke-linecap:butt;stroke-linejoin:miter;stroke-opacity:1"
       d="M 172.67773 76.964844 L 160.77539 89.539062 L 164.9082 91.914062 L 167.9375 97.974609 L 171.97852 93.175781 L 176.52344 93.429688 L 180.81055 91.439453 L 172.67773 76.964844 z "
       transform="translate(0,852.36216)"
       id="path10870" />
    <path
       style="fill:#ffffff;fill-rule:evenodd;stroke:#000000;stroke-width:1px;stroke-linecap:butt;stroke-linejoin:miter;stroke-opacity:1"
       d="M 163.92773 112.67773 L 152.14258 118.39258 L 150.54102 120.58789 L 159.09961 122.97656 L 166.67578 120.95508 L 173.24023 127.77344 L 179.71094 123.98633 L 174.46484 118.92773 L 163.92773 112.67773 z "
       transform="translate(0,852.36216)"
       id="path10872" />
    <path
       style="fill:#ffffff;fill-rule:evenodd;stroke:#000000;stroke-width:1px;stroke-linecap:butt;stroke-linejoin:miter;stroke-opacity:1"
       d="M 111.25 106.60742 L 103.42383 116.97266 L 113.38867 119.1875 L 116.16797 115.14648 L 124.24805 117.67188 L 126.00977 115.69531 L 111.25 106.60742 z "
       transform="translate(0,852.36216)"
       id="path10874" />
    <path
       style="fill:#ffffff;fill-rule:evenodd;stroke:#000000;stroke-width:1px;stroke-linecap:butt;stroke-linejoin:miter;stroke-opacity:1"
       d="M 116.81055 129.28516 L 110.25195 137.76758 L 114.65234 142.16797 L 122.98633 144.18945 L 128.54102 140.40039 L 134.09766 140.40039 L 135.08594 138.71484 L 128.57227 133.75 L 116.81055 129.28516 z "
       transform="translate(0,852.36216)"
       id="path10876" />
    <path
       style="fill:#ffffff;fill-rule:evenodd;stroke:#000000;stroke-width:1px;stroke-linecap:butt;stroke-linejoin:miter;stroke-opacity:1"
       d="M 162.85742 135.71484 L 151.25 147.85742 L 143.57227 148.92773 L 139.75977 153.05664 L 152.02734 154.54297 L 159.09961 161.86719 L 169.45312 156.31055 L 174.25195 158.58398 L 182.49023 156.36523 L 181.25 151.96484 L 172.32227 149.64258 L 162.85742 135.71484 z "
       transform="translate(0,852.36216)"
       id="path10878" />
  </g>
</svg>
