<?xml version="1.0" encoding="UTF-8" standalone="no"?>
<!-- Created with Inkscape (http://www.inkscape.org/) -->

<svg
   xmlns:dc="http://purl.org/dc/elements/1.1/"
   xmlns:cc="http://creativecommons.org/ns#"
   xmlns:rdf="http://www.w3.org/1999/02/22-rdf-syntax-ns#"
   xmlns:svg="http://www.w3.org/2000/svg"
   xmlns="http://www.w3.org/2000/svg"
   xmlns:sodipodi="http://sodipodi.sourceforge.net/DTD/sodipodi-0.dtd"
   xmlns:inkscape="http://www.inkscape.org/namespaces/inkscape"
   width="200"
   height="200"
   viewBox="0 0 200 200"
   id="svg7045"
   version="1.1"
   inkscape:version="0.91 r13725"
   sodipodi:docname="Water.svg">
  <defs
     id="defs7047" />
  <sodipodi:namedview
     id="base"
     pagecolor="#ffffff"
     bordercolor="#666666"
     borderopacity="1.0"
     inkscape:pageopacity="0.0"
     inkscape:pageshadow="2"
     inkscape:zoom="1.4"
     inkscape:cx="70.41058"
     inkscape:cy="181.97304"
     inkscape:document-units="px"
     inkscape:current-layer="layer1"
     showgrid="false"
     units="px"
     inkscape:window-width="1920"
     inkscape:window-height="1017"
     inkscape:window-x="-8"
     inkscape:window-y="-8"
     inkscape:window-maximized="1" />
  <metadata
     id="metadata7050">
    <rdf:RDF>
      <cc:Work
         rdf:about="">
        <dc:format>image/svg+xml</dc:format>
        <dc:type
           rdf:resource="http://purl.org/dc/dcmitype/StillImage" />
        <dc:title></dc:title>
      </cc:Work>
    </rdf:RDF>
  </metadata>
  <g
     inkscape:label="Layer 1"
     inkscape:groupmode="layer"
     id="layer1"
     transform="translate(0,-852.36217)">
    <rect
       style="fill:#0044aa;fill-opacity:1;stroke:#000080;stroke-width:0;stroke-linejoin:miter;stroke-miterlimit:4;stroke-dasharray:none;stroke-opacity:1"
       id="rect7593"
       width="100"
       height="99.999992"
       x="100.00001"
       y="952.36218" />
    <path
       id="path7603-2"
       style="fill:#0066ff;fill-rule:evenodd;stroke:#0066ff;stroke-width:0.19086419px;stroke-linecap:butt;stroke-linejoin:miter;stroke-opacity:1"
       d="m 144.82308,1033.0883 c -7.37435,-4.9195 -29.52451,12.0214 -41.2671,-0.8647 -11.02828,-12.1024 -2.9384,-9.4232 0.002,-7.2576 17.20905,12.6765 32.48289,-7.4556 41.26711,0.8647 7.59847,7.1971 11.81382,15.1397 -0.002,7.2576 z"
       inkscape:connector-curvature="0"
       sodipodi:nodetypes="sssss" />
    <path
       id="path7603-2-0"
       style="fill:#0066ff;fill-rule:evenodd;stroke:#0066ff;stroke-width:0.19086419px;stroke-linecap:butt;stroke-linejoin:miter;stroke-opacity:1"
       d="m 180.82904,953.35443 c -7.37434,-4.91954 -29.52451,12.02147 -41.2671,-0.86474 -11.02828,-12.10234 -2.9384,-9.42315 0.002,-7.25761 17.20905,12.67648 32.48289,-7.45553 41.2671,0.86475 7.59847,7.19714 11.81382,15.13976 -0.002,7.2576 z"
       inkscape:connector-curvature="0"
       sodipodi:nodetypes="sssss" />
    <path
       id="path7603-2-4"
       style="fill:#0066ff;fill-rule:evenodd;stroke:#0066ff;stroke-width:0.19086419px;stroke-linecap:butt;stroke-linejoin:miter;stroke-opacity:1"
       d="m 133.55897,980.82725 c -7.37435,-4.91956 -29.52452,12.02146 -41.267108,-0.86475 -11.028285,-12.10234 -2.938399,-9.42315 0.0016,-7.25761 17.209058,12.67648 32.482898,-7.45552 41.267108,0.86474 7.59847,7.19716 11.81382,15.13977 -0.002,7.25762 z"
       inkscape:connector-curvature="0"
       sodipodi:nodetypes="sssss" />
    <path
       id="path7603-2-08"
       style="fill:#0066ff;fill-rule:evenodd;stroke:#0066ff;stroke-width:0.19086419px;stroke-linecap:butt;stroke-linejoin:miter;stroke-opacity:1"
       d="m 193.74323,1012.7174 c -7.37435,-4.9195 -29.52452,12.0215 -41.2671,-0.8647 -11.02829,-12.10237 -2.9384,-9.4232 0.002,-7.2576 17.20905,12.6765 32.48289,-7.45557 41.26711,0.8647 7.59847,7.1971 11.81381,15.1398 -0.002,7.2576 z"
       inkscape:connector-curvature="0"
       sodipodi:nodetypes="sssss" />
  </g>
</svg>
